<svg xmlns="http://www.w3.org/2000/svg" viewBox="0 0 281.39 73.04"><defs><style>.cls-1{fill:#163d70;}.cls-2{fill:#949524;}.cls-3{fill:#929292;}.cls-4{fill:#fff;fill-rule:evenodd;}.cls-5{fill:none;}</style></defs><g id="Laag_2" data-name="Laag 2"><g id="Layer_1" data-name="Layer 1"><path class="cls-1" d="M172.16,0a5.17,5.17,0,0,0-4.65,2.87L166.65.69h-2.73V32.32h4.84V10.41a7.88,7.88,0,0,1,1.11-4.61A2.78,2.78,0,0,1,172,4.38c.9,0,1.73.27,1.73,2.24v4h4.7V6.81C178.45,1.18,175,0,172.16,0Z"></path><path class="cls-1" d="M223.09,32.32h-4.84v-25A3.6,3.6,0,0,0,217.66,5a2.86,2.86,0,0,0-2.16-.66,4.58,4.58,0,0,0-3.2,1.36,3.62,3.62,0,0,0-1.45,2.45V32.32H206V.69h2.74l.81,2.12A7.37,7.37,0,0,1,215.5,0c5,0,7.59,2.51,7.59,7.27Z"></path><path class="cls-1" d="M235.78,33A6.63,6.63,0,0,1,231,31.24a6.73,6.73,0,0,1-1.83-5V.69h11.76V5.07H234V26.39a2.65,2.65,0,0,0,.51,1.68,1.43,1.43,0,0,0,1.25.56A1.38,1.38,0,0,0,237,28.1a2.71,2.71,0,0,0,.49-1.71v-6.3h4.84V26.2a6.81,6.81,0,0,1-1.79,5A6.44,6.44,0,0,1,235.78,33"></path><path class="cls-1" d="M194.92,25.74a2.46,2.46,0,0,1-2.11,2.73v4.45a8.22,8.22,0,0,0,4.79-1.8,6.87,6.87,0,0,0,2.16-5.38V22.4h-4.84Z"></path><path class="cls-1" d="M197.54,1.88A9.28,9.28,0,0,0,191.29,0c-2.72,0-4.81.64-6.21,1.89a6.85,6.85,0,0,0-2.17,5.38V25.74a6.79,6.79,0,0,0,2.22,5.39,8.22,8.22,0,0,0,4.45,1.77V28.41a2.45,2.45,0,0,1-1.83-2.67V18.23h12v-11a6.79,6.79,0,0,0-2.22-5.39m-2.62,12h-7.17V7.27c0-1.35.41-2.89,3.59-2.89s3.58,1.54,3.58,2.89Z"></path><path class="cls-1" d="M155.39,1.88C153.93.63,151.77,0,149,0s-4.93.63-6.38,1.88a6.75,6.75,0,0,0-2.25,5.39V24.71h4.84V7.27c0-1.35.43-2.89,3.82-2.89s3.81,1.54,3.81,2.89V25.74a2.52,2.52,0,0,1-2.35,2.76v4.42a8.61,8.61,0,0,0,4.95-1.79,6.73,6.73,0,0,0,2.24-5.39V7.27a6.69,6.69,0,0,0-2.27-5.39"></path><polygon class="cls-1" points="257.94 5.07 263.11 5.07 263.42 4.46 263.42 0.69 246.72 0.69 246.72 5.07 254.73 5.07 257.94 5.07"></polygon><polygon class="cls-1" points="261.47 8.3 256.3 8.3 246.02 28.55 246.02 32.32 263.19 32.32 263.19 27.94 251.5 27.94 261.47 8.3"></polygon><rect class="cls-1" x="125.96" y="0.69" width="4.84" height="24.02"></rect><polygon class="cls-1" points="131.69 27.94 130.79 27.94 125.96 27.94 125.96 32.32 147.23 32.32 147.23 27.94 131.69 27.94"></polygon><rect class="cls-2" x="192.34" y="48.71" width="4.75" height="23.63"></rect><path class="cls-2" d="M231.43,72.34h-4.75V47.21c0-2.55-1.25-2.9-2.47-2.9a4.16,4.16,0,0,0-3,1.35,3.69,3.69,0,0,0-1.36,2.48l.09,24.2h-4.71l-.13-25.13c0-2-.74-2.9-2.48-2.9a4.28,4.28,0,0,0-3,1.3A3.47,3.47,0,0,0,208.32,48V72.34h-4.75V40.62h2.69l.79,2.08A8.7,8.7,0,0,1,208.92,41a6.88,6.88,0,0,1,3.78-1.12c2.81,0,4.81.9,6,2.68a7,7,0,0,1,5.59-2.68c4.69,0,7.17,2.52,7.17,7.29Z"></path><path class="cls-2" d="M253.68,72.34h-4.75V40.62h2.68l.84,2.18A5.07,5.07,0,0,1,257,39.92c2.82,0,6.18,1.19,6.18,6.83v3.82h-4.61v-4c0-2-.82-2.26-1.7-2.26a2.72,2.72,0,0,0-2.11,1.43,8,8,0,0,0-1.09,4.63Z"></path><rect class="cls-1" x="192.34" y="40.62" width="4.75" height="4.85"></rect><rect class="cls-2" x="237.69" y="40.62" width="4.75" height="23.63"></rect><rect class="cls-2" x="237.69" y="67.49" width="4.75" height="4.85"></rect><path class="cls-2" d="M161.55,41.82a8.59,8.59,0,0,0-6-1.9c-2.61,0-4.61.64-5.95,1.91a7.05,7.05,0,0,0-2,5.38v3.36h4.74V47c0-1.27.37-2.72,3.25-2.72a3.82,3.82,0,0,1,2.56.73,2.49,2.49,0,0,1,.77,2V64.91a3.8,3.8,0,0,1-1.46,2.44,4.35,4.35,0,0,1-3,1.3,2.41,2.41,0,0,1-2-.66,3.79,3.79,0,0,1-.56-2.25V61.11a3.75,3.75,0,0,1,.56-2.24,2.41,2.41,0,0,1,2-.66h2.39V53.82h-2.39c-4.78,0-7.31,2.52-7.31,7.29v4.63c0,4.78,2.53,7.3,7.31,7.3a6.94,6.94,0,0,0,3.82-1.12,8.44,8.44,0,0,0,1.89-1.68l.83,2.1h2.68V47.21a7,7,0,0,0-2.09-5.39"></path><path class="cls-2" d="M136.89,65.75A2.45,2.45,0,0,1,135,68.44v4.5a7.89,7.89,0,0,0,4.51-1.8,7,7,0,0,0,2.13-5.39V62.39h-4.75Z"></path><path class="cls-2" d="M139.46,41.81a9,9,0,0,0-6.13-1.89c-2.67,0-4.72.64-6.1,1.9a6.93,6.93,0,0,0-2.12,5.39V65.74a6.89,6.89,0,0,0,2.17,5.41,8.08,8.08,0,0,0,4.55,1.79V68.46a2.46,2.46,0,0,1-2-2.72V47.21c0-1.35.4-2.9,3.52-2.9s3.52,1.55,3.52,2.9v3.36h4.75V47.21a6.89,6.89,0,0,0-2.18-5.4"></path><path class="cls-2" d="M179.38,44.55a2.62,2.62,0,0,1,1,.5,2.46,2.46,0,0,1,.79,2V52h4.74V47.21c0-3-1.19-6.6-6.5-7.19Z"></path><path class="cls-2" d="M185.79,62a10,10,0,0,0-2-3.14l-8.12-8a4.28,4.28,0,0,1-1.2-1.62,7.39,7.39,0,0,1-.27-2.28,2.4,2.4,0,0,1,.79-1.93,2.77,2.77,0,0,1,1.23-.58V40a8,8,0,0,0-4.62,1.8,6.92,6.92,0,0,0-2.15,5.39A10.67,10.67,0,0,0,170,51,9.13,9.13,0,0,0,172.13,54l8,8a5.09,5.09,0,0,1,1.2,1.72,7.15,7.15,0,0,1,.29,2.27,2.28,2.28,0,0,1-.84,1.9,5.83,5.83,0,0,1-5.72,0,2.37,2.37,0,0,1-.84-2V61h-4.75v4.75c0,3.32,1.47,7.29,8.45,7.29s8.44-4,8.44-7.29a11.2,11.2,0,0,0-.54-3.74"></path><polygon class="cls-3" points="269.71 72.6 269.71 70.46 279.17 70.46 279.17 64.85 281.08 64.85 281.08 72.6 269.71 72.6"></polygon><polygon class="cls-3" points="276.08 59.68 269.71 63.62 269.71 61.26 274.24 58.53 269.71 55.81 269.71 53.56 276.08 57.49 281.08 57.49 281.08 59.68 276.08 59.68"></polygon><path class="cls-3" d="M279,40.86a4.21,4.21,0,0,1,.8.71,6.41,6.41,0,0,1,.76,1.06,6.85,6.85,0,0,1,.57,1.35,5.23,5.23,0,0,1,.22,1.55,6,6,0,0,1-.44,2.33,5.44,5.44,0,0,1-1.24,1.83,5.59,5.59,0,0,1-1.87,1.19,6.58,6.58,0,0,1-4.68,0,5.72,5.72,0,0,1-3.21-3.05,5.74,5.74,0,0,1-.48-2.37,6.06,6.06,0,0,1,.18-1.53,5.79,5.79,0,0,1,.49-1.27,4.72,4.72,0,0,1,.73-1,5.47,5.47,0,0,1,.89-.78l1.34,1.52a4.61,4.61,0,0,0-1.26,1.27,3.27,3.27,0,0,0-.47,1.81,3.31,3.31,0,0,0,.33,1.5,3.55,3.55,0,0,0,.89,1.14,3.76,3.76,0,0,0,1.29.71,4.81,4.81,0,0,0,1.56.25,4.56,4.56,0,0,0,1.54-.25,3.62,3.62,0,0,0,1.24-.71A3.39,3.39,0,0,0,279,47a3.31,3.31,0,0,0,.3-1.44,4.15,4.15,0,0,0-.17-1.25,3.34,3.34,0,0,0-.42-.89,3.26,3.26,0,0,0-.54-.61c-.19-.16-.35-.31-.49-.45Z"></path><polygon class="cls-3" points="269.71 37.07 269.71 29.71 271.6 29.71 271.6 34.92 274.27 34.92 274.27 31.09 276.19 31.09 276.19 34.92 279.15 34.92 279.15 29.31 281.08 29.31 281.08 37.07 269.71 37.07"></polygon><path class="cls-3" d="M269.71,25.48V23.33h6.8a4.71,4.71,0,0,0,1.17-.13,2.24,2.24,0,0,0,.88-.41,1.94,1.94,0,0,0,.57-.77,3.14,3.14,0,0,0,.19-1.18,3.08,3.08,0,0,0-.19-1.17,1.88,1.88,0,0,0-.57-.77,2.4,2.4,0,0,0-.88-.42,5.23,5.23,0,0,0-1.17-.13h-6.8V16.21h7.17a5.16,5.16,0,0,1,1.78.3,4.07,4.07,0,0,1,1.42.91,4.3,4.3,0,0,1,.95,1.45,5.12,5.12,0,0,1,.36,2,5.05,5.05,0,0,1-.36,2,4.24,4.24,0,0,1-.95,1.46,3.91,3.91,0,0,1-1.42.9,4.93,4.93,0,0,1-1.78.31Z"></path><polygon class="cls-3" points="269.71 11.27 269.71 9.27 275.08 6.12 269.71 3.02 269.71 1.02 281.08 0.47 281.08 2.57 273.2 2.95 277.84 5.67 277.84 6.68 273.32 9.43 281.08 9.8 281.08 11.81 269.71 11.27"></polygon><path class="cls-4" d="M98.59,42.13s0,0,0,0h0l0,0v0m-16-21.93a1,1,0,0,0,.17.1l-.22,0h-.07l.12-.08"></path><path class="cls-5" d="M41.8,19.37l.05.09h.09c0,.05,0,.1.05.14.23.06.38.18.64.09h.19v0a1,1,0,0,0,.41-.28l.05-.09.14,0,.09-.14h.09l0-.09.18,0,.37-.41h.09l.1-.14h.09v0l.14-.09V18.2l.14-.09c0-.06,0-.12,0-.19l.09,0v-.14h0a1.21,1.21,0,0,1,.05-.18h0c0-.2.09-.39.14-.59a13.86,13.86,0,0,0,.65-1.4,2.39,2.39,0,0,0-.14-.91h0l0-.77a2.64,2.64,0,0,0-1.11-1.18l-.46-.05c-.08.1-.11,0-.18.1l-.14.18h0c-.19.28-.14.94-.51,1-.17.18-.39.06-.64.14v0H42.4v0h-.14a1,1,0,0,1,0,.1h-.09v0c-.07.06-.07,0-.1.14a.49.49,0,0,0-.09.45H42v.14h0v.09h0v.09l.09,0v.09a1.33,1.33,0,0,0,.19.14v.09l.14.09v.09l.09.05v.5h-.05c0,.07,0,.15,0,.22h0v.09l-.09.09v.1l-.1,0V17h0v.09h0v.09h0v.09l-.1,0v.14l-.09.05v.08h0v.1l-.1.09v.09l-.09,0V18h-.05l-.09.28h0v.13h-.05V19c.14.08.18.27.28.4Z"></path><path class="cls-5" d="M47.06,23v0h.1v.05l.27.09v0l.28.05v0l.87.14h.7v0h.09l.32.28v.09l.09,0c0,.06,0,.12,0,.18l.09.05v.09h0a.44.44,0,0,1,.09.18l.6.05.05-.05v.05h.09v0H51v.05h.1v0l.32.05v0l.14.05.09-.14a.68.68,0,0,0,.09-.59h0v-.18h0v-.09h-.05c0-.07,0-.15,0-.23l-.09,0v-.09l-.1-.05v-.09l-.09,0-.18-.23H51v0l-.27-.1v0h-.14v-.05h-.14v0h-.14v-.05H50.2v0H50V22.5l-.19,0-.09-.09h-.09l0-.09h-.09v-.05c-.11-.08-.17-.19-.33-.23a.54.54,0,0,0-.13-.22h0v-.09l-.09-.05a2.19,2.19,0,0,1-.19-.81l-.18,0c0-.09,0-.18,0-.27h0a4.46,4.46,0,0,0-.74-.18c-.07.12-.12.17-.32.18a2.37,2.37,0,0,1-.14.32l-.09.4h0v.09h0c0,.08,0,.16,0,.23l-.1.05v.18h0V22h-.05v.09h0v.28h0l.09.4Z"></path><path class="cls-1" d="M58.6,70.74h0Z"></path><path class="cls-2" d="M81.35,31.28a2.67,2.67,0,0,0,2.05-.4l.31-.1a.93.93,0,0,1,.05-.1h.1c0-.05.07-.11.11-.15h.1a.54.54,0,0,1,.05-.11l.26-.2v-.1h.05c0-.06,0-.1.1-.15v-.15a3.67,3.67,0,0,0-1.38.2H81.76v.05H81.4l-.56.2a.93.93,0,0,0,0,.1c-.15.1-.21.06-.26.26h0v.25l.2.15v0h.11v.05l.2.05v.05h.16v.05Z"></path><path class="cls-2" d="M80.84,40.61a.31.31,0,0,1,0-.1H81c0-.06.07-.11.1-.16L81.5,40v-.1l.21-.15v-.1l.1,0v-.05l.1,0v-.1l.16-.1v-.11l.1,0V39l.15-.1v-.1l.11-.05v-.1l.25-.2v-.1l.36-.3V38l.36-.3v-.1l.26-.2v-.1l.15-.1v-.1l.1,0v-.1l.11,0a2.81,2.81,0,0,1,.1-.31h0v-.1h0v-.1h0v-.1h0v-.1h.06a1.46,1.46,0,0,1,.05-.2h0l0-.2h0c0-.11.07-.21.1-.31h.06v-.1h.05v-.1l.1-.1v-.1L85,35a1.46,1.46,0,0,0,.05-.2l.1-.05.06-.2.1-.05v-.1h0v-.1l.15-.11v-.1l.41-.35h.42c.08.1.11,0,.2.1l0,.1.31.25v.11l.1,0a1.6,1.6,0,0,1,.05.21l.16.1v.1l.1.05v.1l.1.05.26.3.15.1v0h.11l.15.21h.1l.16.2.15,0V36l.1.05a1.46,1.46,0,0,1,0,.2h.06c0,.15.06.3.1.45h0v.1h0v.16h0c0,.1.07.2.1.3h0v.45c-.15.1,0,.14-.25.2V38l-.15.05v.06h-.11l0,.1-.77.3h-1c-.44.13-1,.12-1.48.25h-.31v0h-.1v.05l-.46.15v0a.72.72,0,0,1-.31.2v.1c-.14,0-.12,0-.16.16h-.1v.1A2.39,2.39,0,0,0,83,42v.2h0l.11.3h0v.1l.1.05v.1h.05a.88.88,0,0,1,0,.15h.1c0,.13,0,.09.11.16v0h.1c0,.06.07.11.1.16a.86.86,0,0,0,.41.1c.09-.11.25-.17.31-.3s.07-.34.1-.51a1.78,1.78,0,0,1,.62-1c.52-.32,1.3,0,1.9-.15h.41v0h.15v0l.51-.05v0h.11v-.05h.35v0h.16v0l.77-.05v0l1.69-.15h1.49a2.74,2.74,0,0,0,.41.15c.15.25.25.16.26.6-.19.11-.18.2-.52.2-.16.13-1.23-.11-1.59,0v.06h-.15v0H91v.06h-.25v0h-.1V42h-.16v0h-.15v0h-.11v.05h-.15v0H90v.05l-.51.15-.06.1H89.3l0,.1-.21.05a.31.31,0,0,1-.05.1h-.1c-.07.09-.14.17-.2.26l-.26.2v.1a1,1,0,0,0-.31.8c.18.11.15.16.26.31l.2.15v.1l.21.15v.1l.36.3a1.3,1.3,0,0,0,.1.15l.2,0,.06.1h.15v.06H90v0a1.51,1.51,0,0,0,.77-.11h.1v0l.41-.35.1-.3h.05v-.15h0v-.1h.06v-.1h0c0-.07,0-.14,0-.2L92,44h.1v0h.15v0a2.41,2.41,0,0,1,1.08.1.88.88,0,0,1,0,.15h.05v.41a2.26,2.26,0,0,0-.15,1.11h0a1.17,1.17,0,0,1,0,.2l.21.15v0l.2.05v0h.46v0h.11v-.05h.15l0-.1h.1l.21-.25h0v-.1h0v-.11h0v-.15H95v-.15h.06a1.94,1.94,0,0,1,.05-.2l.1-.05v-.1l.2-.15v0h.11a.31.31,0,0,1,0-.1l.26,0v-.05H96v0l.3-.06v0l.31-.11v0l.21-.05.15-.2.16-.1v-.1h.05v-.1h0v-.2h0V43h0v-.31h0v-.2h.05l.06-.45h.05v-.36h0v-1.1h0v-.36h0l0-.3A.83.83,0,0,1,98,39.9c.09.1.11,0,.2.1l.06.1h.1v0h.1l.1.15h.11l.1.15h.1a.93.93,0,0,1,0,.1,1,1,0,0,0,.52.26c.05-.11.16-.24.2-.36v-.3h0V39.6h.05v-.76h0a3.06,3.06,0,0,0,0-1.06v-.4h-.05v-.15h0v-.3h0v-.26h0v-.25h0v-.1h-.05V36H99.4v-.15h-.05v-.41a5.83,5.83,0,0,1,0-1.46h0v-.7h.05c0-.59,0-1.18-.05-1.77h0V31h0v-.15h0v-.35h0v-.31h-.06v-.1h0v-.25H99c0-.1,0-.2,0-.3h0v-.1h0v-.21h0c0-.06,0-.13-.05-.2h0v-.15h-.06l-.1-.3h0v-.1h0v-.1h-.05v-.1h0v-.1h0v-.1L98.17,28v-.1l-.1,0v-.1h0c0-.15-.07-.3-.1-.45h-.06v-.91h0v-.15h0v-.4h-.05V24.48a1.66,1.66,0,0,1-.1-.86h0c0-.15.07-.3.1-.45h0v-.1h0v-.16l.11-.05c0-.1,0-.2,0-.3l.1,0v-.15h0v-.1h0v-.2h.06a2.4,2.4,0,0,0-.06-.86c-.12-.08,0,0-.1-.15h-.05V21h0l-.16-.2h-.1a.93.93,0,0,0-.05-.1h-.1s-.07-.11-.1-.15l-.21-.06v-.05l-.31-.1v-.05h-.15a.31.31,0,0,1,0-.1l-.21-.05-.2-.25-.16-.1v-.1h0v-.1h0v-.15h-.05v-.16h0v-.1h0v-.2h0v-.15h0v-.15h-.06v-.15h0v-.1h-.05v-.15h0c0-.07,0-.14,0-.21h0v-.15h0l-.06-.2h0v-.1l-.1-.05-.1-.3-.1,0L95,17a.31.31,0,0,0-.1,0v-.1l-.15-.11v-.1h-.05v-.1l-.11-.1v-.1l-.15-.1c0-.1-.07-.2-.1-.3l-.11-.1V15.7l-.1,0V15.5l-.1-.05v-.1h0V15.2l-.11,0v-.1h0V15l-.11-.1v-.1l-.1-.05v-.1l-.15-.1v-.1l-.11-.06v-.1L93,13.89v-.1l-.1,0-.26-.3-.3-.25L92.22,13l-.15,0v-.1H92a.54.54,0,0,0-.16-.25h0a.88.88,0,0,0-.05-.15l-.1-.05v-.1l-.1-.05v-.1h-.06V12a.31.31,0,0,0-.1,0v-.21h0c0-.11,0-.23,0-.35h0V11h0v-.15h-.06c0-.19,0-.37,0-.56l-.1-.05v-.2l-.1-.05v-.1l-.1-.05v-.1l-.21-.15v-.1l-.1,0-.16-.21h-.1L90,9.05h-.1L89.86,9h-.1l-.05-.1h-.15a.47.47,0,0,1,0-.1H89.4V8.7h-.15a.47.47,0,0,1,0-.1H89v0l-.2-.05V8.45h-.15l-.06-.1-.3,0-.06-.1h-.15a.93.93,0,0,0-.05-.1h-.15V8h-.11l0-.1h-.15a.31.31,0,0,1,0-.1l-.21,0,0-.1h-.15a.47.47,0,0,1-.05-.1l-.26,0a.47.47,0,0,1,0-.1h-.16V7.39h-.1v0h-.15v0l-.47,0v0h-.15V7.14l-.87,0a4.09,4.09,0,0,0-2,0h-.31v.05h-.15v0l-.67,0v0h-.31v0h-.2v.05h-.41v0h-.11v0l-.87,0v0h-.2v.05h-.52v0H79v0l-.82,0v0h-.1v.05h-.31V8h-.1V8l-.36.06v.05h-.1v0H77L77,8.3h-.15v0h-.11V8.4h-.1v0h-.1V8.5h-.1v.05l-.21,0,0,.1-.2.05-.06.1h-.15a.93.93,0,0,1-.05.1h-.1l-.11.15-.2.05a1.4,1.4,0,0,0-.1.16l-.21,0-.15.2h-.1l-.06.1h-.1a.31.31,0,0,0,0,.1,1,1,0,0,1-.41.25v.1l-.31.2,0,.1h-.1c0,.05-.07.11-.11.15h-.1c0,.06-.07.11-.1.16l-.46.15,0,.1h-.21v0h-.15v.05h-.1v0h-.26v.05H72v.05l-.47,0a.31.31,0,0,1,0,.1h-.2l0,.1-.31,0,0,.1-.21.05a.93.93,0,0,1-.05.1h-.15l-.11.16h-.1a.93.93,0,0,1,0,.1h-.1a1.3,1.3,0,0,0-.1.15h-.11l-.25.3h-.11l-.15.2h-.1l-.46.51-.31.25v.1l-.26.2v.1h0v.1l-.1.05a1.6,1.6,0,0,0-.05.21l-.16.1-.1.3-.1.05v.15l-.11,0-.15.45h0c0,.07,0,.14-.05.2h0a2.82,2.82,0,0,0-.16,1.11h.06a1.6,1.6,0,0,0,0,.21h.41v-.06h.15l0-.1H68a.31.31,0,0,0,.05-.1h.11l.15-.2.41-.35a1.56,1.56,0,0,1,.16-.2h.1l.15-.2.31-.11v-.05h.1l0-.1.26,0v-.05H70V15.2h.25v0H71V15.1h.21v0l.3-.1.21-.25.1,0c.17-.35.34-.71.52-1.06l.15-.1.36-.4H73c0-.06.07-.11.1-.16h.1l.21-.25h.1c.28-.28.55-.57.82-.86h.11l.1-.09h.1v-.06h.11v-.05h.1v0l.61-.05a2.44,2.44,0,0,0,.36.15.41.41,0,0,0,.1.21H76c0,.16,0,.33,0,.5h0v.15l-.11.05v.1l-.1.05-.15.2H75.5a.31.31,0,0,1,0,.1H75.3v.06l-.21.05v0h-.15v.05h-.1v0h-.1l-.06.1h-.1a.31.31,0,0,0,0,.1h-.1l-.11.15a1.4,1.4,0,0,0-.46,1.21c.24.21.11.38.62.4V15.2h.2v0h.1V15.1h.11l.51-.45v-.1l.15-.1v-.11l.11,0v-.1l.51-.46c.33-.15,1,.06,1.33-.05v0h.21v-.05h.2v-.05h.16v0h.25v-.05H79v0h.41v-.05h.26v-.05H80v0l.31-.05v0l.21-.05V13l.25,0v-.05a.74.74,0,0,1,.26-.15v-.1c.26-.16.3-.35.46-.6l.1-.05v-.1h.06v-.2h0v-.16h0v-.2h.05c.08-.21,0-.29.26-.35s.62.11.92,0v0H83l0-.1h.11a.47.47,0,0,1,0-.1.78.78,0,0,1,.66-.25c.09.13.15.12.16.35h.05a1.31,1.31,0,0,1-.1.4.92.92,0,0,1-.62.5h-.2v.05l-.16.06v0H83V12l-.2.15v.1l-.11.05c0,.13,0,.27-.05.4h0v.15h0c0,.07,0,.14,0,.21l-.31.25v.05a3,3,0,0,1-1,.1s0-.06-.11-.05v.05h-.41v0h-.2v.05h-.16v.05h-.2v0l-.26.05,0,.1h-.1l-.1.1V14l-.11.1h-.1c0,.06-.07.1-.1.16h-.11l-.15.2h-.1a1.3,1.3,0,0,0-.1.15l-.21,0,0,.1a2.46,2.46,0,0,1-.41.1v0h-.26V15h-.15v.05H77.5v0a2.46,2.46,0,0,0-.41.1s0,.07,0,.1h-.1l-.1.15-.21.05v.05l-.1.06v.09l-.21.16V16h0l-.1.3h0v.15h-.05c-.14.33-.22.86-.57,1s-.84-.17-1.12-.1v.05h-.21v.05l-.21.05a.47.47,0,0,1,0,.1l-.2.05v.05h-.1l-.06.1H73.4v.05h-.1v.05h-.21v.05h-.25v-.05h-.26v-.05h-.1v-.05h-.1v0l-.26-.05v-.05a1.24,1.24,0,0,0-.41-.05v.05h-.16v.05l-.3.25-.06.21-.1,0a2.38,2.38,0,0,1,0,.26H71v.1h0v.2h0a3,3,0,0,0,.2,1.71c.16.46.06,1.1.67,1.11.09-.1.12,0,.2-.1l.11-.15h.1l.21-.25h.1V21l.25-.2v-.1h.11v-.11c.41-.23.66-.79,1.07-1.05l.21,0v-.05l.2-.06v0h.21v-.06h.1v0h.15v-.06h.11v-.05l.31-.1v-.05h.15v-.05a1.34,1.34,0,0,1,.87.15h.15v0h.11v.05l.46.16,0,.1h.1a.31.31,0,0,1,0,.1h.11l.61.65c.08.07.19.07.26.15l.41.05v-.05h.31v-.05h.25v0h.16v-.05h.15v-.05h.16V20h.15V20l.31-.1v-.05l.3-.1.06-.1.2-.05v-.05l.31-.1v-.05l.87-.2v-.06h.1v-.05l.26,0,0-.1.21-.05a.47.47,0,0,1,.05-.1,1.08,1.08,0,0,1,.61-.15c.1.11.24.12.36.2l0,.1h.1l.06.1.2,0,0,.11a2.66,2.66,0,0,0,1.34.25h.51a4.85,4.85,0,0,1,1.49-.15h.56v0l.36.06v.05h.21v0h.1v.05l.26.05v.05h.1v.05h.41c.09-.1.11,0,.2-.1l.11-.15.2-.05.05-.1h.1l.06-.1h.15v-.06h.31v-.05c.08,0,.09.05.1.05h.72v-.05l.31,0,.25-.3v-.35h0c0-.24,0-.47,0-.71-.12-.08,0,0-.1-.15h0v-.1l-.16-.1v-.1l-.15,0-.21-.25H91v-.05h-.1v-.05h-.15v-.06h-.16v-.05a3.39,3.39,0,0,0-1.74.31L86.94,17V17l-.61.05v.05l-.36.05a.85.85,0,0,1-.41.1,2,2,0,0,1-.67-.1h-.26v-.05h-.41v.05h-.1v0H84l-.06.1-.2.05s0,.07,0,.1l-.21.05,0,.1h-.1l-.1.15h-.11v.05H83v.05h-.15v.05l-1.18-.15a3.88,3.88,0,0,0-1.28.25h-.31c-.43,0-.67,0-.82-.3-.11-.09,0,0,0-.15-.14-.34,0-.35.1-.6.22-.06.18-.17.31-.26h.1v-.05h.1l0-.1H80v0l.16-.05,0-.1h.1a.31.31,0,0,0,0-.1h.11a1.3,1.3,0,0,1,.1-.15l.2-.05.06-.1h.1v-.05l.2-.05v0l.31-.05V15.7l.41,0v-.05h.41v-.06h.41a4,4,0,0,0,1.28-.05h.16a.41.41,0,0,1,.05-.09c.13-.1.09.05.15-.16h0l.06-.35h.05a2.21,2.21,0,0,1,0-.25l.1-.05v-.1h0a.55.55,0,0,0,.11-.2h.1v-.1l.2-.06a.31.31,0,0,0,0-.1l.77,0,1.13-.4h.72v.05h.15v0l.47.05,1.23.5v.06l.3.1v0l.52.1v0h.1v.05h.15v0h.11a.47.47,0,0,0,.05.1h.1L91,15h.1c.16.17.31.34.47.5l.2.16v.09h0c0,.11.07.21.11.31h0c0,.1,0,.2,0,.3h0v.25h.05c0,.27,0,.54,0,.81h0v.15l.11.05v.1a.31.31,0,0,0,.1,0v.1l.1.05V18l.1.05a1.6,1.6,0,0,1,.05.21l.16.1v.1l.1.05v.1l.16.1v.1l.15.1V19l.2.15.36.41h.1l.11.15c.36.25.7.36.72,1h0l-.06.25-.1.05-.36.4h-.1a.93.93,0,0,1,0,.1,1,1,0,0,1-.41.3v.11a1,1,0,0,0-.41.3.31.31,0,0,0,0,.1H93a.47.47,0,0,1-.05.1l-.15.05v.05l-.21.05a.47.47,0,0,1,0,.1h-.1v.05h-.15l0,.1h-.16v0H92v.05c-.2.09-.29,0-.36.26a.8.8,0,0,0,0,.5h0v.2h0v.25h.05v.36h0v.15h0l.06.7h0v.1h0v.3h0v.16h.05V26h0v.15l.11.05a2.21,2.21,0,0,0,0,.25.31.31,0,0,0,.1,0v.1l.1.05v.1l.15.11V27l.11.05c0,.06,0,.13,0,.2h0l0,.15.1,0v.1l.11.05a1.46,1.46,0,0,0,0,.2h0V28h0v.21h0v.3h.05v.3h0v.35h.06v.31h0v.3h0V30l.15.45c.23.14.27.32.62.36l.31-.25v-.11l.2-.15v-.1h0A1.3,1.3,0,0,0,95,30h.11l0-.1h.2v-.05L96,30V30h.15v.05h.1v.05h.16v.05h.1v0l.26.05v.05h.1v.05h.1a.93.93,0,0,1,0,.1h.11l.25.31.11,0v.1l.1.05a1.94,1.94,0,0,0,0,.2h0v.15h0c0,.15,0,.3.05.45a2.73,2.73,0,0,1,0,1h0v.31c-.06.18-.1.45-.25.55s-.34.07-.57,0-.22-.16-.36-.25l-.25-.3h-.11c-.06-.09-.13-.17-.2-.26a2.12,2.12,0,0,0-1.39-.75v0l-.25,0v.05h-.16v0l-.2.05v0h-.21v0h-.2v.05L93,32.44v0l-.46,0v-.05a3.69,3.69,0,0,0-1-.2v0l-.31.1v0h-.11l0,.1h-.1l-.1.15h-.1l0,.1-.21,0,0,.1h-.16a.31.31,0,0,1,0,.1h-.15l0,.1h-.16v.06l-.2.05v0h-.15l-.06.11-.36,0v.05H89v0h-.3v.05a.88.88,0,0,1-.52-.1c-.32-.08-.32-.41-.31-.81.11-.09,0-.11.11-.2l.1-.05v-.1h.05v-.1l.21-.15.51-.56,0-.2h0V31h0v-.15H89c0-.12,0-.24,0-.35l.11-.06v-.1h0v-.1l.1-.05a2.17,2.17,0,0,1,.62-.5h.1l.31-.2v-.1h.05a1.27,1.27,0,0,0-.11-.56h0c0-.1-.06-.2-.1-.3l-.1,0v-.1h0a1.94,1.94,0,0,1,0-.2h0v-.16h-.06v-.2h0v-.4h0a3,3,0,0,0,.06-1.06h-.06v-.2h0c0-.1-.06-.2-.1-.3h0v-.1h0v-.11l-.1,0v-.11l-.11-.05a1.94,1.94,0,0,0-.05-.2l-.1-.05c0-.1,0-.2,0-.3h0v-.1h-.06v-.51h0v-.8H89c0-.09,0-.17,0-.25L88.53,23h-.2V23h-.11v-.05H88v-.05h-.1v-.05l-.36,0-.06-.1h-.2v-.05h-.15v-.05H87v0h-.2l0-.1-.36-.05s0-.07-.05-.1h-.21v-.05h-.1v-.05l-.36-.05v-.05h-.1v0h-.26V22H85.2v-.05h-.26v-.05h-.51V21.8h-.21v-.05h-.77V21.7h-.51v-.05h-.15v0h-.47v-.05h-.15V21.5h-.51v-.05h-.77v.05h-.36v.05h-.15v.05h-.16v0h-.15l0,.1h-.16v.05l-.15.06,0,.1h-.1l-.11.15h-.1l-.1.15-.31.25v.1l-.1.05v.1h0c0,.1-.07.2-.11.31h-.05v.25h0v.15h0c0,.37,0,.74,0,1.11h0l-.06.35h-.05V25h0v.15h0v.1l-.1,0v.1l-.26.36h-.1v.05a.6.6,0,0,1-.26.15v.1a.84.84,0,0,0-.36.25.31.31,0,0,1,0,.1h-.2a1.3,1.3,0,0,0-.1.15h-.11l-.1.1v.1l-.1.06V27l-.11.05v.1h-.05v.1l-.1.05v.1h0v.1h0c0,.13,0,.27-.05.4h0V28h0a4.36,4.36,0,0,0,0,1.57h0v.1h0v.15h.05v.1l.25.3c.09.06.12,0,.21.1a2,2,0,0,0,1.28-.4l.21-.25.25-.2v-.11l.11,0v-.11l.1,0c0-.07,0-.14,0-.21l.56-.6h.11a.31.31,0,0,1,0-.1h.15v-.05h.16v-.05h1.48v-.05h.31v-.06l.46-.05V28H82V27.9h.2v0h.26V27.8h.1v-.05h.31V27.7h.2v-.05h.31a5.86,5.86,0,0,1,1.34,0,3.07,3.07,0,0,0,1,.3.67.67,0,0,1,.31-.2v-.1c.17-.09.23-.27.36-.4l.15-.1V27a.42.42,0,0,0,.2-.1v0h.11v-.06H87s0-.06.11-.05v.05l.25.06c0,.18.2.33.26.5s0,.3,0,.45h.05v.41h0v.5a5,5,0,0,1,0,1.36h-.05c0,.07,0,.14,0,.2l-.16.1v.1h0a1.12,1.12,0,0,0-.3.41H87V31l-.31.25v.1l-.35.3v.11l-.21.15V32l-.61.55-.16.2h-.05v.1l-.15.1V33h-.11c-.12.14-.24.27-.35.41h-.11l-.31.35h-.1l-.15.2H84l-.16.2h-.1a.93.93,0,0,1,0,.1l-.15.06v0a.47.47,0,0,1-.21.11v.1c-.29.06-.47.3-.72.4s-.5,1-.86,1.08l-.48.19c-.1,0-.49.3-.6.32a10.42,10.42,0,0,0-1.07,1.13l-.88.7C77.54,40,79,40.7,79,40.7s1.09.11,1.21.11Z"></path><path class="cls-2" d="M73.55,29.11c0-.1,0-.2,0-.3s-.07,0-.1-.1c-.19.05-.16.11-.26.25L73,29v.16H73v.09h0c0,.27-.07.54-.1.81h-.06v.2h0v.15h0c0,.11-.07.21-.1.31h0c0,.1-.07.2-.1.3l-.11,0v.1l-.1.1v.1h0v.1h0v.1h-.05v.2h0v.11H72v.4h0v.05h0v.45H72v.1h0v.21h.05c0,.06,0,.13,0,.2h0v.15h0a1.46,1.46,0,0,1,0,.2h.06c0,.1,0,.2.05.3h0c0,.44,0,.88,0,1.31h-.05v.26h.05v.3h0V36h0v.1h0l0,.2.1,0v.1l.11,0v.1l.25.2.16.21h.1a.93.93,0,0,1,.05.1,1.14,1.14,0,0,0,.62.2c.06-.06,0,0,.1-.05l.1-.15h0V37h0v-.21h.06V35.16h-.06V34h0c0-.12,0-.23,0-.35h0v-.1h0v-.15h-.05v-.1h0L74,32.94h0v-.25h0V31.38h0v-.6h0v-.31h-.05v-.3h0v-.5h0v-.56Z"></path><path class="cls-2" d="M69.91,22.81v.05l-.2.05,0,.1h-.11a.54.54,0,0,1,0,.11l-.25.2v.1l-.11,0a1.55,1.55,0,0,0,0,1h0v.15h0l.11.3h0V25l.1.05a1.94,1.94,0,0,1,0,.2l.16.1v.1l.15.1v.11l.1.1v.1h0v.1H70V26l.1.05a1.46,1.46,0,0,0,0,.2l.1.05c0,.15.07.3.1.45l.11.06c.32.51.4,1.35,1.18,1.41v-.05s.32-.06.41-.1a2.11,2.11,0,0,0,.56-.51l.1-.05v-.1h0l.06-.2h0c0-.1,0-.2,0-.3h0v-.26H73v-.3a1.91,1.91,0,0,1-.1-1,6.08,6.08,0,0,0,.56-1.51h0v-.15h0c-.07-.09-.06-.11-.21-.15v-.05l-.35-.05v-.05h-.31v0h-.36v-.05h-.41a2,2,0,0,1-.67-.51l-.1-.15-.26-.05v-.05A2,2,0,0,0,69.91,22.81Z"></path><path class="cls-2" d="M65.24,32.59c.29.93.64,1.76.93,2.67,0,.36.07.71.1,1.06s.12.62.2.86v.2h.06a1.46,1.46,0,0,0,0,.2h0v.1l.1,0c.17.25.29.47.67.5v0h.1a.86.86,0,0,0,.1-.16h.06v-.1l.1,0v-.15h0v-.1h0v-.2h0v-.25h0v-.25H68v-.2s.07,0,.11-.16a1.47,1.47,0,0,1,.61,0v0h.16v0H69v.05h.15c.24.1.14.1.41.06a1.42,1.42,0,0,0,0-.16h.06v-.1h0v-.3c0-.07,0,0,.05-.05,0-.24-.07-.47-.1-.71H69.6v-.1h0v-.2h0V35h0v-.15h0v-.15h-.05v-.15h0v-.25h0v-.26h-.06a1.07,1.07,0,0,1,.06-.5v-.41h0v-.2h0v-1.2h0c0-.17,0-.34,0-.51h-.06v-.3h0v-.36h0v-.25h0v-.2H69V30h0v-.15h0v-.1h0v-.1l-.11-.05v-.1l-.1,0v-.1l-.1-.06v-.09l-.16-.11V29l-.15-.1c-.27-.27-.41-.51-1-.5H67v.05h-.1v.05h-.16l-.56.5v.1l-.16.11v.09l-.1.06a1.94,1.94,0,0,1,0,.2l-.1.05a1.17,1.17,0,0,0-.05.2h0l-.11.3h0v.15h0v.15h0v.16h-.05v.15h0l-.06.7h0a1.75,1.75,0,0,0,0,.86Z"></path><path class="cls-2" d="M61.78,56.13a3.56,3.56,0,0,0,.33-.17l.57-.39S61.78,56.15,61.78,56.13Z"></path><path class="cls-2" d="M52.63,70.74h0Z"></path><path class="cls-2" d="M76.89,54.21h0v-.1h0V54h-.06c0-.1-.06-.2-.1-.3h0l-.1-.3-.11,0v-.1h-.05V53.1h0a1.31,1.31,0,0,0,0-.15l-.1-.05a1.17,1.17,0,0,1-.05-.2l-.1-.05-.06-.15-.2-.15v-.1l-.21-.15V52l-.15-.11v-.1l-.1,0v-.1h0v-.1l-.11-.1v-.1l-.1-.05-.15-.5h-.06c0-.07,0-.14,0-.21h-.06v-.15h-.05v-.1h0v-.15h0V50h0v-.15h0v-.15h-.05v-.2h-.06v-.16h0v-.09h0v-.16h0c0-.1-.07-.2-.1-.3h0v-.1H74a1.46,1.46,0,0,0,0-.2l-.1-.05v-.1h0v-.1l-.1-.1v-.1L73.55,48v-.1h0c0-.06,0-.13,0-.2h0c-.15-.45-.31-.9-.46-1.36h0v-.1l-.11,0c0-.1-.06-.2-.1-.3l-.1,0-.15-.46h-.05v-.1h-.06v-.15h0v-.35h0c0-.27,0-.54,0-.81h0a2,2,0,0,0-.1-.95l-.15-.11v-.05H72a.93.93,0,0,0,0-.1h-.1v-.05h-.1v0h-.16v-.05l-.2,0v0l-.26-.05v0h-.15l-.51-.3V42h-.06v-.36h.06v-.1h0v-.1h0l.31-.75v-.26h0a1.26,1.26,0,0,0,0-.5V39.6h0l-.11-.46h-.05l-.1-.3h0a1.46,1.46,0,0,1,0-.2h-.06a.88.88,0,0,0-.05-.15l-.1-.05c-.15-.22-.23-.51-.56-.56L69.6,38c-.15.18-.08.95-.2,1.21h-.05v.1l-.1.06v.1l-.16.1-.25.3c-.28.2-.44.25-.47.71h.06v.2h0a1.94,1.94,0,0,0,0,.2h0v.1l.1,0v.1l.72.66V42l.15.1v.1h0v.2h.06v.91h0v.3h.05v.25a4.49,4.49,0,0,1,.2,1.51v.41h0c0,.2,0,.4,0,.6h0v.3a2.86,2.86,0,0,0-.1,1.52h.05c0,.06,0,.13,0,.2l.1,0,.16.2.3.1v0l.88.1v0l.3.1v0h.11l.15.2.1,0v.11l.11.05v.1l.1,0,0,.2.1,0V50l.11,0v.1c.09.13.19.09.25.31h.1l.57.6.1,0v.1l.15.1v.1l.11.05v.15h0a1.6,1.6,0,0,0,.05.21h0c.2.44-.18.91,0,1.36h0c0,.1.07.2.1.3l.16.1v.1l.26.2a1.3,1.3,0,0,0,.1.15h.1l.2.25h.11l0,.11.15,0v.05l.21,0,0,.1.15,0v.05l.21,0a1.53,1.53,0,0,0,1.18.2,1.46,1.46,0,0,1,0-.2h0c.06-.18-.07-.32-.1-.4Z"></path><path class="cls-5" d="M42.54,16.34c0,.07,0,.15,0,.22h0v.09l-.09.09v.1l-.1,0V17h0v.09h0v.09h0v.09l-.1,0v.14l-.09.05v.08h0v.1l-.1.09v.09l-.09,0V18h-.05l-.09.28h0v.13h-.05V19c.14.08.18.27.28.4h0l.05.09h.09c0,.05,0,.1.05.14.23.06.38.18.64.09h.19v0a1,1,0,0,0,.41-.28l.05-.09.14,0,.09-.14h.09l0-.09.18,0,.37-.41h.09l.1-.14h.09v0l.14-.09V18.2l.14-.09c0-.06,0-.12,0-.19l.09,0v-.14h0a1.21,1.21,0,0,1,.05-.18h0c0-.2.09-.39.14-.59a13.86,13.86,0,0,0,.65-1.4,2.39,2.39,0,0,0-.14-.91h0l0-.77a2.64,2.64,0,0,0-1.11-1.18l-.46-.05c-.08.1-.11,0-.18.1l-.14.18h0c-.19.28-.14.94-.51,1-.17.18-.39.06-.64.14v0H42.4v0h-.14a1,1,0,0,1,0,.1h-.09v0c-.07.06-.07,0-.1.14a.49.49,0,0,0-.09.45H42v.14h0v.09h0v.09l.09,0v.09a1.33,1.33,0,0,0,.19.14v.09l.14.09v.09l.09.05v.5Z"></path><path class="cls-5" d="M38.85,36.12l-.05,2.23c0,.45-.4.62-.84.37L36.56,38c-.89-.49-1.67-.15-1.69.74l-.08,2.75c0,.45-.41.61-.86.35l-1.2-.68c-.94-.54-1.76-.19-1.78.75l-.05,2.27a4,4,0,0,0,.77,2.47l.55.83c.34,2.36,1.86,2.06,2.38-.18l0-1.66c0-.46.41-.62.86-.37l2.13,1.21c.45.25.85.08.85-.38l0-3.48c0-.45.38-.63.82-.4l1.76.36c.44.23,1.34-.8,1.34-1.24L42.52,39a1.21,1.21,0,0,0-.29-.76l-1.61-2.06C39.92,35.23,38.88,35.22,38.85,36.12Z"></path><path class="cls-5" d="M47.25,47.17V47h0v-.18h0v-.09h0v-.09L47,46.58l-.09-.14h-.37v.05a.31.31,0,0,0-.18.09v0c-.13.09-.19.05-.24.23H46A1.21,1.21,0,0,1,46,47a1,1,0,0,0-.13.09v.09l-.14.09v.09l-.14.09v.09l-.14.09v.09l-.23.18-.05.14-.09,0v.09l-.46.41v0l-.09,0v.09l-.09,0-.23.27h-.1l-.27.32H43.7a1.13,1.13,0,0,0-.1.13h-.09l-.28.32h-.09a.36.36,0,0,0,0,.09H43l-.18.23h-.09l-.1.13h-.09l-.09.14h-.09l-.14.18-.19,0-.13.18-.14,0,0,.09h-.09l0,.1-.18,0,0,.09h-.09l0,.09h-.09l0,.09-.18,0a.41.41,0,0,1-.05.09h-.09l0,.09-.28.09-.05.09-.18.05,0,.09h-.09A.41.41,0,0,1,40,52h-.13a.41.41,0,0,0,0,.09l-.18,0v.05l-.14,0a.73.73,0,0,1,0,.09l-.18.05-.05.09h-.14l0,.09-.19,0a.36.36,0,0,0,0,.09h-.15a.36.36,0,0,1,0,.09h-.09v0h-.1l-.09.09h-.09v0l-.14,0s0,.06,0,.1l-.19,0a.41.41,0,0,1-.05.09H37.7l-.05.09h-.09l-.09.09h-.1v0h-.09v0h-.09v.05H37.1v0H37v0l-.28.09v0h-.14v0l-.18.05v0h-.14l-.05.09H36v.05h-.1v0h-.18v0h-.09v0h-.14v.05h-.09v0H35.3v0l-.19,0v.05l-.46.14v0h-.09v0h-.14v0h-.09v.05h-.14v0l-.18,0v0h-.19l0,.09h-.14v0l-.19,0v.05h-.14v0h-.09v0h-.14l0,.09-.32,0a.41.41,0,0,0,0,.09h-.19l0,.09h-.19v0l-.18.05v0h-.14l0,.09h-.15v.05h-.09v0h-.09v0h-.09v.05h-.09v0l-.19,0a.41.41,0,0,1-.05.09h-.09l0,.09h-.1l0,.09h-.09v0h-.1l0,.1h-.09l-.05.09h-.18v0h-.14v.05H30v0h-.23v0h-.74a8.08,8.08,0,0,0-1.94.09h-.32a.52.52,0,0,0-.28.22,1.05,1.05,0,0,0-.09.64h0v.5h0v.13h0v.41h0v.41h.05v.14h0v.4h0v.09h0c0,.14,0,.28,0,.41h0v.09H27v.14l.09,0v.1l.09,0v.09h.05a.64.64,0,0,1,.18.27.42.42,0,0,1,.19.09v0h.09l.05.09h.13v0l.19,0v.05l.78.18.05.09H29l.05.09h.14v0l.18,0v0h.14l0,.1.18,0V62l.14,0,.05.09.18.05.05.09h.09a.41.41,0,0,0,.05.09h.09l0,.09.19,0v.05l.14,0,0,.09h.09a.41.41,0,0,1,.05.09l.14,0v.05l.14,0v.09a.38.38,0,0,1,.18.09v0h.09a.41.41,0,0,1,0,.09l.18.14a.41.41,0,0,1,.05.09h.1a1,1,0,0,0,.09.13h.09a.41.41,0,0,0,0,.09,2.84,2.84,0,0,0,.73.32l1,0v0H34V63.8h.18v0h.09v0h.19v0h.13v-.05l.28-.09v0H35v-.05l.18,0v0l.14,0,0-.09.19,0,.14-.18h.09l.09-.14h.09c.13-.13.25-.27.37-.41h.1l0-.09.42-.36.09-.13h.09v-.1l.23-.18v0h.09l.19-.23h.09l.09-.13.37-.32.93-1c.15-.14.3-.28.46-.41s0-.12,0-.18l.1,0a1,1,0,0,1,.09-.13h0V59l.23-.18a1.21,1.21,0,0,0,0-.18l.18-.13a1.33,1.33,0,0,0,.05-.19l.14-.09v-.09l.14-.09V58l.14-.09v-.09l.09,0,0-.13h.05l0-.14H41a.34.34,0,0,1,.09-.18h0v-.09l.09,0v0l.09,0V57l.14-.09v-.09l.18-.13V56.6l.28-.23v-.09l.09-.05v-.09l.14-.09V56l.23-.18v-.09l.28-.23v-.09l.14-.09v-.09l.09,0,.14-.19h.05v-.09h0a.31.31,0,0,0,.09-.18h.1a.67.67,0,0,1,.18-.32h.05v-.09l.09,0v-.09l.18-.14v-.09h.05a.69.69,0,0,1,0-.13l.09,0v-.09l.14-.09v-.09l.09,0v-.09l.14-.09c0-.06,0-.12,0-.18l.09-.05v-.09l.19-.13V52.7l.09-.05v-.09l.14-.09a1.21,1.21,0,0,1,.05-.18l.13-.09v-.09l.1,0V52l.13-.09v-.09l.1,0v-.09l.13-.09a1.21,1.21,0,0,0,.05-.18h0v-.09l.14-.09.09-.27h0a.78.78,0,0,0,0-.14l.09,0c0-.06,0-.12,0-.18l.09,0v-.09l.1,0v-.14l.09,0,.09-.27.09,0v-.14l.09,0v-.14l.1,0,.09-.4.09,0v-.14H47v-.18h0v-.09h0v-.22l.09,0v-.27a2,2,0,0,0,.09-.95Z"></path><path class="cls-5" d="M26.21,38.82h.05c0-.06,0-.12,0-.18l.14-.09v-.09l.14,0,.18-.23h.09l0-.09.14-.05v0h.09l.05-.09h.09l.05-.09.14,0,.09-.13.14,0c.37-.38.73-.76,1.1-1.13v-.09l.14-.09v-.1l.09,0c0-.06,0-.12.05-.18h.05s0-.09,0-.14l.09,0V35.7l.19-.14v-.09l.14-.09v-.05h.09l.18-.22H30L30,35l.19-.05v0l.18,0v-.05h.14v0l.28-.09v-.05h.09v0H31v0l.28-.09,0-.09.19,0,0-.09h.1v0l.13-.05a.41.41,0,0,0,.05-.09h.1a1,1,0,0,1,.09-.13h.09a.41.41,0,0,1,0-.09h.09l.09-.14.18,0v0l.28-.09v-.05h.14v0H33v0l.83-.22v0H34v0h.18v0c.27-.1.52-.08.6-.36h.05v-.14a.41.41,0,0,0-.24-.41v0h-.18c-.09-.08-.34,0-.51,0l-1.33.09v0h-.46v0H31.7a4,4,0,0,0-1.94,0v0h-.09l-.37.27-.09.14h-.09l-.1.09v.09l-.23.18v.09l-.23.18v.09l-.14.09-.13.18h-.05v.1l-.09,0c-.11.11-.33.3-.37.45h-.09l-.23.28h-.1l-.14.18-.18,0-.05.09h-.14v.05h-.09v0h-.23v0a.82.82,0,0,1-.5-.09c-.4-.09-.54-.53-.65-.91-.06-.21.05-.51-.05-.68l-.09,0a1.33,1.33,0,0,0-.14-.19H25v0l-.18-.05v0l-.19,0,0-.09h-.09l-.24-.27v-.09h0v-.09h-.05V32h0v-.13c-.18-.41-.46-1-1-1.05-.1.12-.17.05-.23.23a1,1,0,0,0-.14.77,7.62,7.62,0,0,1,.14,1.9c0,.22,0,.43.05.64h0v.5H23v.18H23v1.36h0v.14h.05l0,.54.1,0v.22h0v.09h.05c0,.21,0,.43,0,.64h.05a2.21,2.21,0,0,1-.09.91v.22H23.3v.09h0v.23h-.05v.09h-.05v.27h0a1.64,1.64,0,0,0,.09.82l.14.09v0h.09l0,.09.18,0v0h.14v0h.09v0l.28,0v0h.18v0h.14v0h.65v0l.32,0v0h.09v0h.14v0h.14v0H26v0h.14v0h.09v0h.14v0c.19-.1.22-.06.23-.36h0c0-.07,0-.15,0-.22h0v-.14h-.05v-.09h0c0-.11,0-.21-.05-.32h0v-.09h-.05c0-.21,0-.42-.05-.63h.05Z"></path><path class="cls-5" d="M48.91,21.64a2.19,2.19,0,0,1-.19-.81l-.18,0c0-.09,0-.18,0-.27h0a4.46,4.46,0,0,0-.74-.18c-.07.12-.12.17-.32.18a2.37,2.37,0,0,1-.14.32l-.09.4h0v.09h0c0,.08,0,.16,0,.23l-.1.05v.18h0V22h-.05v.09h0v.28h0l.09.4.23.19v0h.1v.05l.27.09v0l.28.05v0l.87.14h.7v0h.09l.32.28v.09l.09,0c0,.06,0,.12,0,.18l.09.05v.09h0a.44.44,0,0,1,.09.18l.6.05.05-.05v.05h.09v0H51v.05h.1v0l.32.05v0l.14.05.09-.14a.68.68,0,0,0,.09-.59h0v-.18h0v-.09h-.05c0-.07,0-.15,0-.23l-.09,0v-.09l-.1-.05v-.09l-.09,0-.18-.23H51v0l-.27-.1v0h-.14v-.05h-.14v0h-.14v-.05H50.2v0H50V22.5l-.19,0-.09-.09h-.09l0-.09h-.09v-.05c-.11-.08-.17-.19-.33-.23a.54.54,0,0,0-.13-.22h0v-.09Z"></path><path class="cls-5" d="M53.15,64a2.68,2.68,0,0,1,.07-.27A2.68,2.68,0,0,0,53.15,64Z"></path><path class="cls-5" d="M53.68,62.58l.16-.29Z"></path><path class="cls-5" d="M53.28,63.53a2,2,0,0,1,.09-.26A2,2,0,0,0,53.28,63.53Z"></path><path class="cls-5" d="M52.77,69.58h0c.2-2,.13-3.36.21-4.49C52.89,66.22,53,67.55,52.77,69.58Z"></path><path class="cls-5" d="M53,65c0-.12,0-.24,0-.35C53,64.74,53,64.86,53,65Z"></path><path class="cls-5" d="M53.05,64.47l.06-.3Z"></path><path class="cls-5" d="M53.45,63.06l.12-.27Z"></path><path class="cls-5" d="M54.32,61.55l.44-.57Z"></path><path class="cls-5" d="M54,62.08l.23-.34Z"></path><path class="cls-5" d="M2.07,18.06V69.58H17a11.4,11.4,0,0,1,2.16-3.73v-.1l.55-.49.18-.23.1,0v-.1l.37-.31v-.1l.09,0a.78.78,0,0,1,.05-.14h0v-.09l.09,0v-.09l.1,0v-.09h0v-.09h.05v-.14h.05v-.13l.09,0v-.18h0v-.09h.05v-.13h.05V62.9l.09,0v-.18h0v-.09h.05l.05-.36h0v-.09h.05V62h0v-.09h.05c0-.13,0-.25.05-.37h0V61.4h.05v-.18h0v-.09h0V61h0v-.14h0v-.09h.05v-.18h0v-.09h0c0-.09,0-.18,0-.27l.09,0V60l.09,0v-.13h.05v-.1h0v-.09h.05v-.09h.05l0-.18.09,0a1.21,1.21,0,0,0,.05-.18l.14-.1V59l.14-.09v-.09l.09,0v-.09a1.1,1.1,0,0,1,.14-.09v-.1l.18-.13c0-.06,0-.12.05-.18l.18-.14,0-.18.09,0v-.09l.09,0V57.5l.1,0v-.14h0a1.47,1.47,0,0,0,0-.59c-.17-.1-.16-.22-.46-.22v0l-.74,0v0h-.14v.05h-.13v0h-.14v0a4.51,4.51,0,0,1-1.11,0v0H21v0l-.28,0v-.05l-.23,0v0l-.18,0v-.05h-.1a1.1,1.1,0,0,0-.09-.14H20l-.14-.18h-.09l-.09-.13h-.09l-.1-.14h-.09l-.09-.14H19.2l-.33-.36-.18-.13v-.1L18.55,55v-.09l-.09,0v-.14l-.09,0c0-.09,0-.18-.05-.28h-.05v-.09h0V54.1l-.09,0v-.18a1.9,1.9,0,0,1-.23-1.14,1.27,1.27,0,0,1,.46,0c.12.1.29,0,.46.09.37.11,1.06.18,1.15.54.19.2,0,.6.09.91h.05v.27h0v.23h.05v.09h.05l.09.27.09,0,.33.36h.09l.05.09H21l0,.09h.14v0h.09v.05l.51,0v0l.37-.05v0h.09v0l.14,0a.45.45,0,0,1,.14-.23h0v-.09l.1,0v-.09l.09,0V55h.05v-.09h0v-.09l.09-.09v-.09l.1,0v-.09l.18-.14.05-.09h.09l.14-.18.27-.09v0h.1l0-.09H24a.41.41,0,0,0,.05-.09l.18,0,.05-.09h.09v0h.1l0-.09h.09v0l.14,0,.05-.09h.09L25,53.2h.1l0-.09.19,0V53a2.12,2.12,0,0,1,.74-.09v0h.27v0h.23v0h.09a.41.41,0,0,0,.05-.09h.09l0-.09h.09l.09-.14H27v-.09l.18-.14c0-.09.07-.18.1-.27h0V52h.05v-.09h.05l.09-.27h0v-.14a1.71,1.71,0,0,0,.14-.77,4.16,4.16,0,0,0-.08-1.25c-.42-4.17-3.22-5.15-3.22-5.15-1.91-.39-.07,1-.07,1a5.47,5.47,0,0,1,.93,3.24l-.09.11h-.05v.09l-.19.14c0,.06,0,.12,0,.18l-.37.32-.09.13-.19,0-.05.09-.18.05v0l-.83.18v0H23v0h-.14v0a1.71,1.71,0,0,1-.65,0v0h-.09v0h-.09l0-.09h-.09l-.09-.13h0v-.1l-.09,0-.14-.41H21.5v-.09h0v-.32h-.05v-.18h0v-.32h-.05V48h-.05v-.14h0v-.18h-.05v-.09h0a2.56,2.56,0,0,1-.05-.27H21v-.09h0v-.14l-.09,0a1.33,1.33,0,0,1-.05-.19l-.09,0-.1-.27-.09,0v-.09l-.09,0v-.1l-.09,0c0-.06,0-.12,0-.18l-.09,0-.33-.72L19.61,45l-.64,0,0,.09h-.14v0h-.09a.41.41,0,0,1-.05.09l-.18,0-.09.14h-.1l0,.09-.19.14v.09l-.09,0V46h0v.13h-.05v.28h-.05v.4h0V47h-.05v.23c0,.1-.11.19-.14.31a.61.61,0,0,1-.23,0c-.09-.14-.05,0-.14-.09l0-.09h-.05v-.09l-.18-.14L16.89,47l-.09,0v-.1h-.05c0-.06,0-.12,0-.18h-.05v-.13h-.05v-.14h0v-.23h-.05v-.13h-.05V45.9h0l-.05-.18h0v-.1l-.1,0v-.09l-.78-.73v-.09l-.09,0v-.09l-.09,0V44.4h0a1.4,1.4,0,0,1,.51-1.5h.41V43l.23,0v0h.09v.05a1.85,1.85,0,0,0,1.07.22,2.25,2.25,0,0,1,1-.18v0h.14v0h.09v.05l.42.13,0,.09h.14a.73.73,0,0,0,.05.09h.09v.05l.28,0v0h.64v0h.14v0l.28-.09v0H21l.14-.18h.09l.09-.09s0-.09.05-.13l.23-.19v-.09l.14-.09v-.09l.09,0c0-.06,0-.12,0-.18h0v-.59l-.23-.19v0h-.09v-.05l-.28-.09v0l-.27,0v0h-.23v0H19.52v0h-.18v0h-.1l-.37-.27v-.09l-.27-.23V40.5l-.33-.27-.09-.14h-.09L18,40h-.09v-.05l-.19,0v0l-.18,0v-.05H17.4v0h-.19v0H17v0h-.19v0h-.13v0h-.14l-.05-.09h-.09v0l-.14-.09v-.09h-.05l0-.18h-.05a2.29,2.29,0,0,1,0-.64l.09,0v-.14l.1,0v-.09l.13-.09v-.09l.42-.36v-.09l.23-.18c0-.06,0-.12.05-.18l.09-.05v-.14h0c0-.06,0-.12,0-.18h0v-.22h0v-.09h0V36.1h.05c0-.15,0-.3,0-.45h.05v-.09h0v-.18h0v-.09h.05c0-.09,0-.18,0-.27h.05v-.09h.05v-.19h0v-.09H18v-.22h0v-.14h.05V34h.05V33.7h0v-.13h.05v-.23h0v-.09h.05v-.14h.05v-.18l.09,0V32.7l.09,0,.05-.32h0v-.09h.05V32h0v-.09h0v-.22h0v-.14h0c0-.11,0-.21.05-.32a3,3,0,0,1,.6-.86c.17-.16.42-.3.51-.54a3.42,3.42,0,0,0-.19-1.41,1.6,1.6,0,0,1,.09-.72c0-.22,0-.43.05-.64H20l.09-.54.09-.05v-.13l.1-.05a1.16,1.16,0,0,1,0-.18l.19-.14,0-.09h.09l.1-.13h.14a.36.36,0,0,1,0-.09h.23v-.05h.19v0h.78a3.48,3.48,0,0,1,.88-.05,2.77,2.77,0,0,0,.83.05v-.05h.5v-.05h.14v0h.28V25.4h.09v0l.42-.05v0h.14v-.05h.41v0h1.25v-.05s7,.67,10-7.09c0,0,.94-2.08,1-2s.14-.73.25-.73,0-.49.07-.56-.11-.14,0-.24-.21-.12-.21-.16h0a1.07,1.07,0,0,0-.09-.59v-.14H38l-.09-.27h-.05v-.09l-.09-.05v-.09h0c0-.06,0-.12-.05-.18l-.09,0v-.09h-.05l-.09-.28h-.05v-.13h0v-.46l0-.72h.05v-.09h0l.09-.27.09-.05a1.33,1.33,0,0,0,.09-.63,1.7,1.7,0,0,0-.14-.1v0h-.09V9.94l-.18,0V9.85h-.19v0H37V9.76h-.37v0H36v0h-.37v.05h-.23v0h-.23V9.9h-.1v0h-.23V10h-.14v0h-.23v.05l-.55.05v0H33v.05h-.18v0h-.28v.05h-.14v0H32.3v.05h-.14v0l-.27.09v.05h-.1v0h-.14v.05l-.18,0v0l-.56.09v0h-.13v-.05l-.14,0-.05-.31h.05v-.14h0c0-.09.07-.18.1-.27l.09-.05V9.85l.27-.22.1-.14h.09l.18-.23h.1l.09-.13h.09l.1-.14.18,0,.09-.14h.09l0-.09h.09l0-.09h.09l.09-.09h.1v0h.09l0-.09.23,0a.41.41,0,0,0,.05-.09h.14l0-.09h.14v0l.19,0V8L34.05,8l.05-.09h.18V7.81l.37,0v0h.28v0h.14v0h.27v0h.24v0h.13v0H36v0h.09v0l.6,0V7.31h.65c.55.16,1.24.17,1.8.32h.41v0h.1v0h.27v0H40v0l.33.05v0h.09V8h.14l0,.09.42.14,0,.09h.14v0l.19,0v0h.09l.05.09h.13a.41.41,0,0,1,.05.09h.14v.05h.09l.05.09h.14l0,.09h.14l0,.09.18,0,.09.13.19.05.09.13H43a.71.71,0,0,0,.1.14h.09v0l.14,0,0,.09h.09l.14.18h.1a1.1,1.1,0,0,0,.09.14h.09a.41.41,0,0,0,0,.09l.18,0a.47.47,0,0,0,0,.1h.09l.09.09h.09v0h.09a.41.41,0,0,1,0,.09h.14a.41.41,0,0,0,0,.09h.13a.41.41,0,0,1,0,.09l.23.05,0,.09h.13v0l.19,0v.05h.14l0,.08h.14v0l.19.05v0h.09l0,.09h.14a.36.36,0,0,0,0,.09l.19,0a.36.36,0,0,0,0,.09h.09l.05.09h.09l.09.09.19.05a.41.41,0,0,0,0,.09h.09l0,.09h.1l0,.09h.09a.41.41,0,0,1,0,.09l.18,0,0,.1h.09a.73.73,0,0,1,0,.09H48l.09.13h.1l0,.09h.09l.1.14h.09l0,.09h.1l.09.14h.09l.09.13h.1l.13.18h.1l.13.18h.1l.51.55.23.18v.09h.09v.09c.16,0,.17.13.28.23h0l.05.09h.09v0c.12.1.2.23.37.28v.09a1.4,1.4,0,0,1,.51.36,12.39,12.39,0,0,1,2.44,9.06v.14h0v.41h0v.59H54v.23h0v.49h0v.14h0c0,.21,0,.43-.05.64h0V27h0v.23l-.1,0v.18h0v.14h0v.09h0v.13l-.1,0V28h0c0,.06,0,.13-.05.19h0v.13l-.1,0v.13h0v.09h0l-.09.27h0V29l-.09,0v.13h0l0,.18h-.05a1.89,1.89,0,0,1,0,.23h0c0,.11,0,.21-.05.32h0V30h0v.23l-.09,0c0,.17,0,.33,0,.5h0v.09h-.05v.23l-.09,0c0,.12,0,.24,0,.36l-.09.05v.18l-.09.05c0,.13-.06.27-.1.4h0v.1h-.05v.13l-.09,0a2.56,2.56,0,0,1-.05.27h0v.09h0V33l-.09,0v.18h0v.14h0v.13h-.05v.23h0v.09h0V34h-.05v.09h0l0,.41H51v.09h0v.18h0v.09h0v.18H50.8v.14h0v.09h0v.18h-.05v.09h0a2.56,2.56,0,0,0,0,.27h0v.09h0v.18l-.1,0v.18l-.09.05c0,.09,0,.18,0,.27l-.1,0v.14h0v.09h0V37h0v.09H50l0,.18-.09,0,0,.18-.09,0c0,.06,0,.12,0,.19l-.1,0v.09l-.09.05V38l-.14.09v.09l-.14.09v.09l-.32.27L47.57,40v.09l-.09,0v.09h0l0,.19h0c0,.09,0,.18-.05.27h0v.22h0V41h0v.68h0a3.24,3.24,0,0,0,0,1.09v.54h0c0,.12,0,.25,0,.37h0v.09h.05v.13h0v.18l.09.05.09.27.18.14v.09l.28.22a3.11,3.11,0,0,1,.23.28h.09c.12.08.08.17.28.22v.09c.22.06.2.22.42.28v.09c.19,0,.17.13.27.27l.19.13v.09l.09.05a1,1,0,0,1,.32.45c.19.06.06,0,.14.14l.09.05v.09l.14.09v.09l.09,0,0,.14h0v.09l.14.09v.14l.13.09c0,.06,0,.12,0,.18h.05a.34.34,0,0,1,.09.22H51c0,.11,0,.12,0,.19h0v.09h.05v.09l.09,0v.09l.09,0c0,.06,0,.12,0,.18h.05s0,.09,0,.14l.09,0v.09l.14.09v.09l.09,0v.13l.19.14c0,.06,0,.12,0,.18l.1,0a.54.54,0,0,1,.14.27h.09v.09c.12.08.14.2.23.32l.09,0v.09l.18.14V51l.14.09v.09l.09,0v.09l.1,0,0,.14.23.18c0,.06,0,.12,0,.18l.23.18v.09l.14.09v.09l.42.37c.18.18.41.52.69.59v.09a.28.28,0,0,1,.18.09v0h.09v.05l.14.09.05.09.18,0,.14.18h.09a.41.41,0,0,1,.05.09H56l.09.13.19.05.23.27h.09v.05h.09v0h.14l0,.09H57l0,.09h.14v0l.19,0v.05h.13l0,.09.23,0v.05l.14,0a.73.73,0,0,1,0,.09c.13,0,2.16.7,3.49,1.14l.62-.42a8.57,8.57,0,0,1,.78-.44.93.93,0,0,1,0-.1l.31-.05,0-.1h.15s0-.07,0-.1h.1v-.05l.31-.1a.47.47,0,0,0,.05-.1l.16-.1v0h.1l.15-.2h.11l.36-.41h.1l0-.1.15-.05.16-.2h.1l.1-.15h.1l.06-.1.15-.05v0h.1l.1-.15h.11v-.05l.15,0,0-.11h.11l.3-.35h.11l.15-.2.41-.35.1-.2h.1l.16-.21.36-.3h.36v0h.1a2.53,2.53,0,0,1,.2.46h.06v.2h0v.2h0v.4h0V53H69v.31h0c0,.25.07.5.1.75h.06v.2h0v.21h0c0,.16,0,.33.05.5h0v.15h0c0,.19,0,.37,0,.56h0v.1h.06V56h0v.3h.05v.1h0v.25h0v.25h0V57h0l.06.55h0v.2h.05v.2h0v.26h0v.25h0v.1h0v.2h.05v.15h.06V59h0v.2l.1.06v.15h0c0,.06,0,.13.05.2h0c.07.15.14.31.2.46l.42,2.06v.6h.05l0,.5h0v.31h0v.1h.06c0,.17,0,.33,0,.5h0v.1h.05c0,.14,0,.27,0,.41h0v.15h0V65h0l.06.35h0v.1h.05v.21h0v.15h0v.1h0v.2l.11,0c0,.1,0,.2.05.3h0v.1h0v.15h0v.1h0v.16h.05a1.17,1.17,0,0,1,0,.2h0l.06.25h0c0,.1,0,.2,0,.3h0v.1H73v.15l.1,0v.16h0v.15h.06v.1h0v.15h0v.1h.05c0,.1,0,.2,0,.3l.1,0v.15h.06v.1h0c0,.1,0,.2,0,.31h.05v0H80.1l0-.19h0v-.21h0V69h0v-.2h0v-.3h.06v-.1h.05c0-.22,0-.44,0-.66h0v-.1h0v-.2h0v-.15h.05l.11-.3h0a1.6,1.6,0,0,1,0-.21l.1,0v-.1l.1,0v-.1l.11-.05a1.94,1.94,0,0,1,0-.2l.1-.05c0-.1.07-.2.1-.3h0v-.1h0c0-.1.07-.2.11-.31h0c0-.11,0-.23.05-.35l.1-.05c0-.15,0-.3,0-.45H82v-.1h0v-.26h0V64h.05v-.25h0v-.15h0v-.25h0v-.1h0a.31.31,0,0,0,0-.1h0v-.11h.06v-.2h.05v-.1h0v-.15h0v-.15h0l0-.2h.05v-.1l.11,0V62c.07-.11.23-.14.3-.26a1.36,1.36,0,0,1,.62.1v.06h.1l0,.1H84l0,.1.3.1.11.15h.1l0,.1.46.15v0h.1v0l.67.05v-.05h.26v0h.15v0h.16v-.05l.3-.1v0h.11v0h.15v-.05l.31-.1v0l.2,0,.31-.36.21-.15v-.1l.15-.1v-.1l.1,0v-.1l.11-.05V61a.31.31,0,0,1,.1-.05v-.1l.1,0v-.1h0a.75.75,0,0,0,0-.16l.1-.05v-.1l.31-.25,0-.1h.11a.47.47,0,0,1,0-.1h.1a.47.47,0,0,0,.05-.1h.11a.47.47,0,0,1,0-.1h.1v0a.42.42,0,0,1,.2-.1.57.57,0,0,1,.16-.26h0v-.09h.05l.1-.31h0V58.8h0v-.15h.06V58.5h.05v-.15h0v-.26h0v-.2h0v-.15h0v-.15h.06v-.15h0v-.2h.05v-.15h0a1.6,1.6,0,0,1,0-.21h0v-.1l.15-.1.06-.15h.1l0-.1.46-.15H93v-.05h.16v0l.2,0v-.05l.31,0V56c.09,0,.09.05.1.05h.26v0l.72.15.36.25c0,.07,0,.14,0,.2h0v.66h0c.08.27,0,.49.1.71l.11,0v.11l.1,0,.15.2.21,0,0,.1.2,0,.26.3.15.1v.1h.06a1.17,1.17,0,0,0,0,.2h.05v.21h0v.9h0v.21h0v.1h0l.11.15a1.84,1.84,0,0,0,1.74-.41l.1,0v-.1l.11,0v-.1l.1-.1V60h0v-.1h0a1.94,1.94,0,0,0,0-.2h0a.43.43,0,0,0,.11-.2c.25-.08.34-.34.61-.41.05-.16.16-.23.26-.35h0a1.52,1.52,0,0,0,.25-.81c0-.23,0-.44-.1-.55s-.23-.21-.46-.3V57h-.2v0h-.11v-.05h-.1v-.06l-.1,0c-.07-.09,0-.08-.1-.16v-.45l.1,0v-.1h0c0-.1.07-.2.1-.3h.05v-.66a2.12,2.12,0,0,0-.56-.7s-.11-.07-.15-.11v-.1l-.11-.05a2.21,2.21,0,0,0,0-.25h0v-.2a1.58,1.58,0,0,1,0-.65,1.33,1.33,0,0,0,.21-.26l.51,0v0a1.42,1.42,0,0,0,.92-.1.36.36,0,0,0,.21-.25h0v-.2h.05a2.64,2.64,0,0,0-.1-.76c-.07-.14-.28-.28-.21-.55h0v-.2h0l0-.21.11,0a1.6,1.6,0,0,1,.05-.21h0v-.2a1.82,1.82,0,0,0,.1-.76h0v-.55c-.19-.55-.37-1.11-.56-1.66,0-.15,0-.3,0-.46h-.06V46.5h0v-.2h0v-.25h-.05V45.9h0v-.2h0v-.1h0v-.16h0v-.1h-.06v-.1h0c0-.1-.07-.2-.1-.3h0c0-.12,0-.23,0-.35a1.63,1.63,0,0,1,0-.71h0v-.2h0c0-.1,0-.2,0-.3h0a1.94,1.94,0,0,0,.05-.2h0v-.1h.06a1.4,1.4,0,0,1,.1-.16c.42,0,.44.25.61.51l.11,0v.1l.1.1v.1h0v.1h0V44h0v.1h0v.1h.06v.11h0a1.94,1.94,0,0,0,.05.2h0v.1h0v.15h0a1.46,1.46,0,0,1,0,.2h.05c0,.12,0,.24,0,.35h.06c0,.34.07.67.1,1h0c0,.17.07.34.1.51h0v.1h.06v.15h0c0,.1.06.2.1.3h0v.1h.05l.06.2.1.05v.15l.1,0c0,.07,0,.14.05.2h0v.11h0v.1h0v.1l.11.1v.1l.1.05v.1l.1,0v.1l.1,0v.1l.11,0a1.17,1.17,0,0,0,.05.2l.1,0v.11h0a1.17,1.17,0,0,1,0,.2h.06v.15h0v.1h.05v.25h0c0,.67,0,1.35,0,2h0v.35h0v.15h0V53h0v.36a1.63,1.63,0,0,1,.1.91h0c0,.16,0,.33-.05.5h0V55h0v.15h0V56h0v.1h0v.15l.1.05v.1l.41.36.21,0a.93.93,0,0,0,.05.1l.21.06V57h.1v0h.1v.05h.1v0h.11v0h.15l0,.1h.15v.05l.21,0v0h.15v.05h.11v0H106v.05l.21,0v0h.2a.93.93,0,0,0,0,.1l.36.05,0,.1h.21V58h.1v.06h.16v0h.15v.06h.15v.05l.51.1v.05l.21,0v.05h.1l.11.15h.1v0l.36.05,0,.1.31.05v0h.1V59l.25,0v0l.31.05v0h.1v.05h.16v.06l.2,0v.05h.21a.54.54,0,0,0,.05.11H111v0l.2.05v0h.15a.31.31,0,0,1,0,.1h.11l.1.1h.1v0h.1l.06.1H112l0,.1h.1l.11.1h.1v.05h.1v0h.1l0,.1h.16a.93.93,0,0,0,.05.1l.31.1c.08.12,1.2.49,1.29.61s.56.3,1.26.64a15.44,15.44,0,0,0,2.09-7.75V2.54H17.59A15.53,15.53,0,0,0,2.07,18.06ZM18.74,28.94h0v.18h-.05v.27h0c0,.11,0,.21-.05.32h0v.14h-.05c0,.07,0,.15-.05.22h0l-.05.19h-.05c0,.06,0,.12,0,.18l-.09,0v.09l-.19.14v.09l-.6.41c-.09,0,0,0-.09-.05s-.06,0-.14-.14L17,31v-.14H17v-.09h0v-.18h-.05v-.09h-.05v-.13h0v-.19l-.09,0v-.18l-.1-.05c0-.09,0-.18,0-.27h-.05v-.09h-.05v-.14l-.09,0c0-.09,0-.18,0-.27l-.1,0v-.14l-.09,0v-.14h0v-.09l-.1,0v-.14s-.21.33-.24.32c-.14-.26-.13-.88-.26-1.13s.05-.85,0-1.18h-.05v-.73h.05V25.4l.09,0v-.14l.09,0v-.09l.1-.05V25h0a1.13,1.13,0,0,1,.1-.13c.13-.1.31-.12.41-.23a1.71,1.71,0,0,1,.83.13l.14.19h.09l.14.18h.05v.09l.18.13v.09l.09.05v.09l.1.05v.09h0v.13l.09.05c0,.09,0,.18.05.27l.09,0v.19h.05v.09h0v.18h.05v.09h.05c0,.1,0,.21,0,.31h.05v.1h.05v.18h0v.13h.05v.19h0v.27h.05V28h0Zm8.33-17.1c.09-.08,0-.09.09-.18h.05v-.09l.18-.14.05-.09h.09a2.14,2.14,0,0,1,1.29-.45h.56v0l.18,0c.05.06.07.14.12.2l.06,0a1.06,1.06,0,0,1,.19.73c-.12.07,0,0-.09.13l-.28.23,0,.09h-.09l-.14.18h-.09l-.28.32h0a.84.84,0,0,1-.7,0l-.27-.09,0-.09h-.09a.41.41,0,0,0-.05-.09h-.09l0-.09-.14-.05-.1-.14h-.09c-.06,0-.1-.2-.18-.27Zm-9.4,8.76.13-.09v-.09l.09-.05v-.09l.14-.09V20.1l.09-.05V20l.14-.09v-.09l.09,0v-.09l.09,0v-.09h0v-.09h.05v-.09l.09-.09v-.09h.05s0-.09,0-.14l.09,0v-.23h.05l-.09-.82h-.05a2.89,2.89,0,0,1,.23-1.4l.09-.05,0-.13h.05a1.21,1.21,0,0,1,.05-.18l.08-.1V16l.1,0v-.09l.13-.09v-.09l.18-.14v0h.09l.05-.1h.09v0H20v-.05h.14v0h.13V15.2h.14v0h.14v-.05h.08v0l.28-.05v0H21v-.05h.14v0h.13v-.05h.14v0h.14v-.05h.13V14.7h.14v0H22v-.05l.18,0v-.05h.09l0-.09.27-.09a.41.41,0,0,0,.05-.09h.09l.05-.09h0l.05-.09h.09l.18-.23h.09l0-.09h.1l.09-.13h.09l0-.09h.09a.73.73,0,0,1,.05-.09l.14,0v-.05l.27-.09,0-.09h.14v0h.09v0l.27,0v0h.14v0a4.32,4.32,0,0,1,1.09,0v0l.22,0a.49.49,0,0,0,.14.18c-4.39,1.75-5.4,3.52-5.4,3.52s-2.16.84-1.87,4c-.79,2.57-1.35,2.18-1.35,2.18s0-.09,0-.14h0v-.09h0v-.13h0v-.09h0c0-.14,0-.28,0-.41h0a2,2,0,0,1,.09-.86h0c0-.06,0-.12,0-.18h0c0-.07,0-.13,0-.19l.09,0Z"></path><path class="cls-2" d="M73.71,69.54c0-.11,0-.21,0-.31h0v-.1h-.06V69l-.1,0c0-.1,0-.2,0-.3h-.05v-.1h0v-.15h0v-.1h-.06v-.15h0V68l-.1,0v-.15H73v-.1h0c0-.1,0-.2,0-.3h0l-.06-.25h0a1.17,1.17,0,0,0,0-.2h-.05v-.16h0v-.1h0v-.15h0v-.1h0c0-.1,0-.2-.05-.3l-.11,0v-.2h0v-.1h0v-.15h0V65.4h-.05v-.1h0L72,65h0V64.8h0v-.15h0c0-.14,0-.27,0-.41h-.05v-.1h0c0-.17,0-.33,0-.5h-.06v-.1h0v-.31h0l0-.5h-.05v-.6l-.42-2.06c-.06-.15-.13-.31-.2-.46h0c0-.07,0-.14-.05-.2h0v-.15l-.1-.06V59h0v-.1h-.06v-.15h-.05v-.2h0v-.1h0V58.2h0v-.26h0v-.2h-.05v-.2h0L70,57h0v-.11h0v-.25h0v-.25h0v-.1h-.05V56h0v-.25H69.6v-.1h0c0-.19,0-.37,0-.56h0v-.15h0c0-.17,0-.34-.05-.5h0v-.21h0V54h-.06c0-.25-.06-.5-.1-.75h0V53H69V52.8h0v-.4h0v-.2h0V52h-.06a2.53,2.53,0,0,0-.2-.46h-.1v0h-.36l-.36.3L67.6,52h-.1l-.1.2-.41.35-.15.2h-.11l-.3.35h-.11l0,.11-.15,0v.05H66l-.1.15h-.1v0l-.15.05-.06.1h-.1l-.1.15h-.1l-.16.2-.15.05,0,.1h-.1l-.36.41h-.11l-.15.2h-.1v0l-.16.1a.47.47,0,0,1-.05.1l-.31.1v.05h-.1s0,.07,0,.1H63.3l0,.1-.31.05a.93.93,0,0,0,0,.1,8.57,8.57,0,0,0-.78.44l-.62.42C59.3,57.88,54.81,61,54.76,61l-.44.57-.12.19-.23.34-.13.21-.16.29-.11.21-.12.27-.08.21a2,2,0,0,0-.09.26.7.7,0,0,0-.06.19,2.68,2.68,0,0,0-.07.27,1.16,1.16,0,0,0,0,.18l-.06.3a1,1,0,0,1,0,.16c0,.11,0,.23,0,.35a.41.41,0,0,1,0,.11c-.08,1.13,0,2.46-.21,4.49h21v0Z"></path><path class="cls-5" d="M92.28,69.39v-.16h0c0-.25,0-.5,0-.75h.05c0-.34.07-.67.1-1a4.8,4.8,0,0,0,0-1.56v-.2h0c0-.07,0-.14,0-.21l-.1,0v-.1l-.16,0,0-.1H92l0-.1h-.16v0h-.1s0-.07-.1-.1a1.23,1.23,0,0,1,0-.66V64h0v-.1h0v-.2h0v-.1h.05v-.15h0v-.1h0v-.16h.06A1.33,1.33,0,0,1,92,63h0c0-.11.07-.21.1-.31h0l.21-.55.1,0V62h0c.09-.22.17-.7,0-.86a1,1,0,0,0-.51-.5h-.1v-.06h-.31v-.05c-1.35,0-1.77.31-2,1.36v.26h0v.45h0a.75.75,0,0,1-.1.56c-.07.22-.18.16-.31.3a1.72,1.72,0,0,1-.67-.1v-.05h-.1v-.06l-.31,0v0h-.25a1.34,1.34,0,0,0-.21.3v1.31h.05V65h0v.15h0v.2h.06v.1h0v.15h0v.16h0v.1h.05c0,.13,0,.27,0,.4h0V67h0v.15h0v.95h0v.11h0v.15h0l.06.2h0a1.46,1.46,0,0,0,.05.2l.1,0v.15l.1,0v.15l.1.05v.15l.11.06.06.19h3.31c0-.06,0-.13,0-.19Z"></path><path class="cls-2" d="M113.1,60.56l-.31-.1a.93.93,0,0,1-.05-.1h-.16l0-.1h-.1v0h-.1v-.05h-.1l-.11-.1H112l0-.1h-.15l-.06-.1h-.1v0h-.1l-.1-.1h-.11a.31.31,0,0,0,0-.1h-.15v0l-.2-.05v0h-.16a.54.54,0,0,1-.05-.11h-.21V59.3l-.2,0V59.2h-.16v-.05h-.1v0l-.31-.05v0l-.25,0V58.9h-.1v0l-.31-.05,0-.1-.36-.05v0h-.1l-.11-.15h-.1V58.4l-.21,0V58.3l-.51-.1v-.05h-.15v-.06h-.15v0h-.16V58h-.1v-.05h-.21l0-.1-.36-.05a.93.93,0,0,1,0-.1h-.2v0l-.21,0v-.05h-.15v0h-.11v-.05h-.15v0l-.21,0v-.05h-.15l0-.1h-.15v0h-.11v0h-.1V57h-.1v0h-.1v-.05l-.21-.06a.93.93,0,0,1-.05-.1l-.21,0-.41-.36v-.1l-.1-.05v-.15h0V56h0v-.81h0V55h0v-.25h0c0-.17,0-.34.05-.5h0a1.63,1.63,0,0,0-.1-.91V53h0v-.3h0v-.15h0V52.2h0c0-.67,0-1.35,0-2h0v-.25h-.05v-.1h0v-.15h-.06a1.17,1.17,0,0,0,0-.2h0v-.11l-.1,0a1.17,1.17,0,0,1-.05-.2l-.11,0V49l-.1,0v-.1l-.1,0v-.1l-.1-.05v-.1l-.11-.1v-.1h0v-.1h0v-.11h0c0-.06,0-.13-.05-.2l-.1,0v-.15l-.1-.05-.06-.2h-.05v-.1h0c0-.1-.07-.2-.1-.3h0v-.15h-.06v-.1h0c0-.17-.06-.34-.1-.51h0c0-.34-.07-.67-.1-1h-.06c0-.11,0-.23,0-.35h-.05a1.46,1.46,0,0,0,0-.2h0v-.15h0v-.1h0a1.94,1.94,0,0,1-.05-.2h0v-.11H101v-.1h0V44h0v-.1h0v-.1h0v-.1l-.1-.1v-.1l-.11,0c-.17-.26-.19-.49-.61-.51a1.4,1.4,0,0,0-.1.16h-.06v.1h0a1.94,1.94,0,0,1-.05.2h0c0,.1,0,.2,0,.3h0v.2h0a1.63,1.63,0,0,0,0,.71c0,.12,0,.23,0,.35h0c0,.1.07.2.1.3h0v.1h.06v.1h0v.16h0v.1h0v.2h0v.15h.05v.25h0v.2h0v.15h.06c0,.16,0,.31,0,.46.19.55.37,1.11.56,1.66v.55h0a1.82,1.82,0,0,1-.1.76v.2h0a1.6,1.6,0,0,0-.05.21l-.11,0,0,.21h0v.2h0c-.07.27.14.41.21.55a2.64,2.64,0,0,1,.1.76h-.05v.2h0a.36.36,0,0,1-.21.25,1.42,1.42,0,0,1-.92.1v0l-.51,0a1.33,1.33,0,0,1-.21.26,1.58,1.58,0,0,0,0,.65v.2h0a2.21,2.21,0,0,1,0,.25l.11.05v.1s.1.07.15.11a2.12,2.12,0,0,1,.56.7v.66h-.05c0,.1-.07.2-.1.3h0v.1l-.1,0v.45c.12.08,0,.07.1.16l.1,0v.06h.1V57h.11v0h.2v.05c.23.09.4,0,.46.3s.11.32.1.55a1.52,1.52,0,0,1-.25.81h0c-.1.12-.21.19-.26.35-.27.07-.36.33-.61.41a.43.43,0,0,1-.11.2h0a1.94,1.94,0,0,1,0,.2h0V60h0v.1l-.1.1v.1l-.11,0v.1l-.1,0a1.84,1.84,0,0,1-1.74.41L97,60.77h0v-.1h0v-.21h0v-.9h0v-.21h-.05a1.17,1.17,0,0,1,0-.2h-.06v-.1l-.15-.1-.26-.3-.2,0,0-.1-.21,0-.15-.2-.1,0v-.11l-.11,0c-.13-.22,0-.44-.1-.71h0v-.66h0c0-.06,0-.13,0-.2l-.36-.25-.72-.15v0h-.26s0-.07-.1-.05V56l-.31,0v.05l-.2,0v0H93v.05H91.76l-.46.15,0,.1h-.1l-.06.15-.15.1v.1h0a1.6,1.6,0,0,0,0,.21h0v.15h-.05v.2h0v.15h-.06v.15h0v.15h0v.2h0v.26h0v.15h-.05v.15h-.06v.15h0V59h0l-.1.31h-.05v.09h0a.57.57,0,0,0-.16.26.42.42,0,0,0-.2.1v0h-.1a.47.47,0,0,0,0,.1H89.4a.47.47,0,0,1-.05.1h-.1a.47.47,0,0,0,0,.1h-.11l0,.1-.31.25v.1l-.1.05a.75.75,0,0,1,0,.16h0v.1l-.1,0V61a.31.31,0,0,0-.1.05v.1l-.11.05v.1l-.1,0v.1l-.15.1v.1l-.21.15-.31.36-.2,0v0l-.31.1v.05h-.15v0h-.11v0l-.3.1v.05h-.16v0h-.15v0h-.26v.05l-.67-.05v0H85v0l-.46-.15,0-.1h-.1l-.11-.15-.3-.1,0-.1h-.11l0-.1h-.1v-.06a1.36,1.36,0,0,0-.62-.1c-.07.12-.23.15-.3.26v.1l-.11,0v.1h-.05l0,.2h0v.15h0v.15h0v.1h-.05v.2h-.06v.11h0a.31.31,0,0,1,0,.1h0v.1h0v.25h0v.15h0V64h-.05v.25h0v.26h0v.1h-.06c0,.15,0,.3,0,.45l-.1.05c0,.12,0,.24-.05.35h0c0,.11-.07.21-.11.31h0v.1h0c0,.1-.07.2-.1.3l-.1.05a1.94,1.94,0,0,0,0,.2l-.11.05v.1l-.1,0v.1l-.1,0a1.6,1.6,0,0,0,0,.21h0l-.11.3h-.05v.15h0v.2h0v.1h0c0,.22,0,.44,0,.66h-.05v.1h-.06v.3h0V69h0v.15h0v.21h0l0,.19h8.8l-.06-.19-.11-.06v-.15l-.1-.05V69l-.1,0v-.15l-.1,0a1.46,1.46,0,0,1-.05-.2h0l-.06-.2h0v-.15h0v-.11h0v-.95h0V67h0v-.76h0c0-.13,0-.27,0-.4h-.05v-.1h0v-.16h0V65.4h0v-.1h-.06v-.2h0V65h0v-.2h-.05V63.44a1.34,1.34,0,0,1,.21-.3h.25v0l.31,0v.06h.1v.05a1.72,1.72,0,0,0,.67.1c.13-.14.24-.08.31-.3a.75.75,0,0,0,.1-.56h0v-.45h0v-.26c.28-1,.7-1.36,2-1.36v.05h.31v.06H92a1,1,0,0,1,.51.5c.17.16.09.64,0,.86h0v.15l-.1,0-.21.55h0c0,.1-.07.2-.1.31h0a1.33,1.33,0,0,0,0,.19h-.06v.16h0v.1h0v.15h-.05v.1h0v.2h0V64h0v.25a1.23,1.23,0,0,0,0,.66c.06,0,.07.09.1.1h.1v0h.16l0,.1h.15l0,.1.16,0v.1l.1,0c0,.07,0,.14,0,.21h0v.2a4.8,4.8,0,0,1,0,1.56c0,.34-.07.67-.1,1h-.05c0,.25,0,.5,0,.75h0v.16h-.06c0,.06,0,.13,0,.19h10a15.51,15.51,0,0,0,13.43-7.77c-.7-.34-1.22-.6-1.26-.64S113.18,60.68,113.1,60.56Z"></path><path class="cls-1" d="M27.34,12.29l.1.14.14.05,0,.09h.09a.41.41,0,0,1,.05.09h.09l0,.09.27.09a.84.84,0,0,0,.7,0h0l.28-.32h.09l.14-.18h.09l0-.09.28-.23c.06-.08,0-.06.09-.13a1.06,1.06,0,0,0-.19-.73l-.06,0c-.05-.06-.07-.14-.12-.2l-.18,0v0h-.56a2.14,2.14,0,0,0-1.29.45h-.09l-.05.09-.18.14v.09h-.05c-.05.09,0,.1-.09.18V12c.08.07.12.22.18.27Z"></path><path class="cls-1" d="M18.69,27.9h-.05v-.27h0v-.19h-.05v-.13h0v-.18h-.05V27h-.05c0-.1,0-.21,0-.31h-.05v-.09h-.05v-.18h0v-.09h-.05v-.19l-.09,0c0-.09,0-.18-.05-.27L18,25.81v-.13h0v-.09l-.1-.05v-.09l-.09-.05v-.09l-.18-.13v-.09h-.05l-.14-.18h-.09l-.14-.19a1.71,1.71,0,0,0-.83-.13c-.1.11-.28.13-.41.23a1.13,1.13,0,0,0-.1.13h0V25l-.1.05v.09l-.09,0v.14l-.09,0v.32h-.05v.73h.05c.1.33-.07.86,0,1.18s.12.87.26,1.13c0,0,.21-.33.24-.32v.14l.1,0v.09h0v.14l.09,0V29l.1,0c0,.09,0,.18,0,.27l.09,0v.14h.05v.09h.05c0,.09,0,.18,0,.27l.1.05v.18l.09,0v.19h0v.13h.05v.09h.05v.18h0v.09H17V31l.09,0c.08.12-.05.09.14.14s0,0,.09.05l.6-.41v-.09l.19-.14v-.09l.09,0c0-.06,0-.12,0-.18h.05l.05-.19h0c0-.07,0-.15.05-.22h.05v-.14h0c0-.11,0-.21.05-.32h0v-.27h.05v-.18h0V28h0Z"></path><path class="cls-1" d="M17.53,20.92h0c0,.06,0,.12,0,.18h0a2,2,0,0,0-.09.86h0c0,.13,0,.27,0,.41h0v.09h0v.13h0v.09h0c0,.05,0,.09,0,.14s.56.39,1.35-2.18c-.29-3.12,1.87-4,1.87-4s1-1.77,5.4-3.52A.49.49,0,0,1,26.1,13l-.22,0v0a4.32,4.32,0,0,0-1.09,0v0h-.14v0l-.27,0v0h-.09v0h-.14l0,.09-.27.09v.05l-.14,0a.73.73,0,0,0-.05.09h-.09l0,.09h-.09l-.09.13h-.1l0,.09h-.09l-.18.23h-.09l-.05.09h0l-.05.09h-.09a.41.41,0,0,1-.05.09l-.27.09,0,.09h-.09v.05l-.18,0v.05h-.14v0H21.7v.05h-.13v.05h-.14v0h-.14v.05h-.13v0H21V15h-.13v0l-.28.05v0h-.08v.05h-.14v0h-.14v.05h-.13v0H20v.05h-.09v0H19.8l-.05.1h-.09v0l-.18.14v.09l-.13.09v.09l-.1,0v.09l-.08.1a1.21,1.21,0,0,0-.05.18h-.05l0,.13-.09.05a2.89,2.89,0,0,0-.23,1.4h.05l.09.82H18.8V19l-.09,0s0,.09,0,.14h-.05v.09l-.09.09v.09h-.05v.09h0v.09l-.09,0v.09l-.09,0v.09l-.14.09v.09L18,20.1v.09l-.14.09v.09l-.09.05v.09l-.13.09v.09l-.09,0C17.56,20.79,17.55,20.85,17.53,20.92Z"></path><path class="cls-5" d="M42.54,16.34c0,.07,0,.15,0,.22h0v.09l-.09.09v.1l-.1,0V17h0v.09h0v.09h0v.09l-.1,0v.14l-.09.05v.08h0v.1l-.1.09v.09l-.09,0V18h-.05l-.09.28h0v.13h-.05V19c.14.08.18.27.28.4h0l.05.09h.09c0,.05,0,.1.05.14.23.06.38.18.64.09h.19v0a1,1,0,0,0,.41-.28l.05-.09.14,0,.09-.14h.09l0-.09.18,0,.37-.41h.09l.1-.14h.09v0l.14-.09V18.2l.14-.09c0-.06,0-.12,0-.19l.09,0v-.14h0a1.21,1.21,0,0,1,.05-.18h0c0-.2.09-.39.14-.59a13.86,13.86,0,0,0,.65-1.4,2.39,2.39,0,0,0-.14-.91h0l0-.77a2.64,2.64,0,0,0-1.11-1.18l-.46-.05c-.08.1-.11,0-.18.1l-.14.18h0c-.19.28-.14.94-.51,1-.17.18-.39.06-.64.14v0H42.4v0h-.14a1,1,0,0,1,0,.1h-.09v0c-.07.06-.07,0-.1.14a.49.49,0,0,0-.09.45H42v.14h0v.09h0v.09l.09,0v.09a1.33,1.33,0,0,0,.19.14v.09l.14.09v.09l.09.05v.5Z"></path><path class="cls-5" d="M26.21,38.82h.05c0-.06,0-.12,0-.18l.14-.09v-.09l.14,0,.18-.23h.09l0-.09.14-.05v0h.09l.05-.09h.09l.05-.09.14,0,.09-.13.14,0c.37-.38.73-.76,1.1-1.13v-.09l.14-.09v-.1l.09,0c0-.06,0-.12.05-.18h.05s0-.09,0-.14l.09,0V35.7l.19-.14v-.09l.14-.09v-.05h.09l.18-.22H30L30,35l.19-.05v0l.18,0v-.05h.14v0l.28-.09v-.05h.09v0H31v0l.28-.09,0-.09.19,0,0-.09h.1v0l.13-.05a.41.41,0,0,0,.05-.09h.1a1,1,0,0,1,.09-.13h.09a.41.41,0,0,1,0-.09h.09l.09-.14.18,0v0l.28-.09v-.05h.14v0H33v0l.83-.22v0H34v0h.18v0c.27-.1.52-.08.6-.36h.05v-.14a.41.41,0,0,0-.24-.41v0h-.18c-.09-.08-.34,0-.51,0l-1.33.09v0h-.46v0H31.7a4,4,0,0,0-1.94,0v0h-.09l-.37.27-.09.14h-.09l-.1.09v.09l-.23.18v.09l-.23.18v.09l-.14.09-.13.18h-.05v.1l-.09,0c-.11.11-.33.3-.37.45h-.09l-.23.28h-.1l-.14.18-.18,0-.05.09h-.14v.05h-.09v0h-.23v0a.82.82,0,0,1-.5-.09c-.4-.09-.54-.53-.65-.91-.06-.21.05-.51-.05-.68l-.09,0a1.33,1.33,0,0,0-.14-.19H25v0l-.18-.05v0l-.19,0,0-.09h-.09l-.24-.27v-.09h0v-.09h-.05V32h0v-.13c-.18-.41-.46-1-1-1.05-.1.12-.17.05-.23.23a1,1,0,0,0-.14.77,7.62,7.62,0,0,1,.14,1.9c0,.22,0,.43.05.64h0v.5H23v.18H23v1.36h0v.14h.05l0,.54.1,0v.22h0v.09h.05c0,.21,0,.43,0,.64h.05a2.21,2.21,0,0,1-.09.91v.22H23.3v.09h0v.23h-.05v.09h-.05v.27h0a1.64,1.64,0,0,0,.09.82l.14.09v0h.09l0,.09.18,0v0h.14v0h.09v0l.28,0v0h.18v0h.14v0h.65v0l.32,0v0h.09v0h.14v0h.14v0H26v0h.14v0h.09v0h.14v0c.19-.1.22-.06.23-.36h0c0-.07,0-.15,0-.22h0v-.14h-.05v-.09h0c0-.11,0-.21-.05-.32h0v-.09h-.05c0-.21,0-.42-.05-.63h.05Z"></path><path class="cls-5" d="M47.25,47.17V47h0v-.18h0v-.09h0v-.09L47,46.58l-.09-.14h-.37v.05a.31.31,0,0,0-.18.09v0c-.13.09-.19.05-.24.23H46A1.21,1.21,0,0,1,46,47a1,1,0,0,0-.13.09v.09l-.14.09v.09l-.14.09v.09l-.14.09v.09l-.23.18-.05.14-.09,0v.09l-.46.41v0l-.09,0v.09l-.09,0-.23.27h-.1l-.27.32H43.7a1.13,1.13,0,0,0-.1.13h-.09l-.28.32h-.09a.36.36,0,0,0,0,.09H43l-.18.23h-.09l-.1.13h-.09l-.09.14h-.09l-.14.18-.19,0-.13.18-.14,0,0,.09h-.09l0,.1-.18,0,0,.09h-.09l0,.09h-.09l0,.09-.18,0a.41.41,0,0,1-.05.09h-.09l0,.09-.28.09-.05.09-.18.05,0,.09h-.09A.41.41,0,0,1,40,52h-.13a.41.41,0,0,0,0,.09l-.18,0v.05l-.14,0a.73.73,0,0,1,0,.09l-.18.05-.05.09h-.14l0,.09-.19,0a.36.36,0,0,0,0,.09h-.15a.36.36,0,0,1,0,.09h-.09v0h-.1l-.09.09h-.09v0l-.14,0s0,.06,0,.1l-.19,0a.41.41,0,0,1-.05.09H37.7l-.05.09h-.09l-.09.09h-.1v0h-.09v0h-.09v.05H37.1v0H37v0l-.28.09v0h-.14v0l-.18.05v0h-.14l-.05.09H36v.05h-.1v0h-.18v0h-.09v0h-.14v.05h-.09v0H35.3v0l-.19,0v.05l-.46.14v0h-.09v0h-.14v0h-.09v.05h-.14v0l-.18,0v0h-.19l0,.09h-.14v0l-.19,0v.05h-.14v0h-.09v0h-.14l0,.09-.32,0a.41.41,0,0,0,0,.09h-.19l0,.09h-.19v0l-.18.05v0h-.14l0,.09h-.15v.05h-.09v0h-.09v0h-.09v.05h-.09v0l-.19,0a.41.41,0,0,1-.05.09h-.09l0,.09h-.1l0,.09h-.09v0h-.1l0,.1h-.09l-.05.09h-.18v0h-.14v.05H30v0h-.23v0h-.74a8.08,8.08,0,0,0-1.94.09h-.32a.52.52,0,0,0-.28.22,1.05,1.05,0,0,0-.09.64h0v.5h0v.13h0v.41h0v.41h.05v.14h0v.4h0v.09h0c0,.14,0,.28,0,.41h0v.09H27v.14l.09,0v.1l.09,0v.09h.05a.64.64,0,0,1,.18.27.42.42,0,0,1,.19.09v0h.09l.05.09h.13v0l.19,0v.05l.78.18.05.09H29l.05.09h.14v0l.18,0v0h.14l0,.1.18,0V62l.14,0,.05.09.18.05.05.09h.09a.41.41,0,0,0,.05.09h.09l0,.09.19,0v.05l.14,0,0,.09h.09a.41.41,0,0,1,.05.09l.14,0v.05l.14,0v.09a.38.38,0,0,1,.18.09v0h.09a.41.41,0,0,1,0,.09l.18.14a.41.41,0,0,1,.05.09h.1a1,1,0,0,0,.09.13h.09a.41.41,0,0,0,0,.09,2.84,2.84,0,0,0,.73.32l1,0v0H34V63.8h.18v0h.09v0h.19v0h.13v-.05l.28-.09v0H35v-.05l.18,0v0l.14,0,0-.09.19,0,.14-.18h.09l.09-.14h.09c.13-.13.25-.27.37-.41h.1l0-.09.42-.36.09-.13h.09v-.1l.23-.18v0h.09l.19-.23h.09l.09-.13.37-.32.93-1c.15-.14.3-.28.46-.41s0-.12,0-.18l.1,0a1,1,0,0,1,.09-.13h0V59l.23-.18a1.21,1.21,0,0,0,0-.18l.18-.13a1.33,1.33,0,0,0,.05-.19l.14-.09v-.09l.14-.09V58l.14-.09v-.09l.09,0,0-.13h.05l0-.14H41a.34.34,0,0,1,.09-.18h0v-.09l.09,0v0l.09,0V57l.14-.09v-.09l.18-.13V56.6l.28-.23v-.09l.09-.05v-.09l.14-.09V56l.23-.18v-.09l.28-.23v-.09l.14-.09v-.09l.09,0,.14-.19h.05v-.09h0a.31.31,0,0,0,.09-.18h.1a.67.67,0,0,1,.18-.32h.05v-.09l.09,0v-.09l.18-.14v-.09h.05a.69.69,0,0,1,0-.13l.09,0v-.09l.14-.09v-.09l.09,0v-.09l.14-.09c0-.06,0-.12,0-.18l.09-.05v-.09l.19-.13V52.7l.09-.05v-.09l.14-.09a1.21,1.21,0,0,1,.05-.18l.13-.09v-.09l.1,0V52l.13-.09v-.09l.1,0v-.09l.13-.09a1.21,1.21,0,0,0,.05-.18h0v-.09l.14-.09.09-.27h0a.78.78,0,0,0,0-.14l.09,0c0-.06,0-.12,0-.18l.09,0v-.09l.1,0v-.14l.09,0,.09-.27.09,0v-.14l.09,0v-.14l.1,0,.09-.4.09,0v-.14H47v-.18h0v-.09h0v-.22l.09,0v-.27a2,2,0,0,0,.09-.95Z"></path><path class="cls-5" d="M2.07,18.06V69.58H17a11.4,11.4,0,0,1,2.16-3.73v-.1l.55-.49.18-.23.1,0v-.1l.37-.31v-.1l.09,0a.78.78,0,0,1,.05-.14h0v-.09l.09,0v-.09l.1,0v-.09h0v-.09h.05v-.14h.05v-.13l.09,0v-.18h0v-.09h.05v-.13h.05V62.9l.09,0v-.18h0v-.09h.05l.05-.36h0v-.09h.05V62h0v-.09h.05c0-.13,0-.25.05-.37h0V61.4h.05v-.18h0v-.09h0V61h0v-.14h0v-.09h.05v-.18h0v-.09h0c0-.09,0-.18,0-.27l.09,0V60l.09,0v-.13h.05v-.1h0v-.09h.05v-.09h.05l0-.18.09,0a1.21,1.21,0,0,0,.05-.18l.14-.1V59l.14-.09v-.09l.09,0v-.09a1.1,1.1,0,0,1,.14-.09v-.1l.18-.13c0-.06,0-.12.05-.18l.18-.14,0-.18.09,0v-.09l.09,0V57.5l.1,0v-.14h0a1.47,1.47,0,0,0,0-.59c-.17-.1-.16-.22-.46-.22v0l-.74,0v0h-.14v.05h-.13v0h-.14v0a4.51,4.51,0,0,1-1.11,0v0H21v0l-.28,0v-.05l-.23,0v0l-.18,0v-.05h-.1a1.1,1.1,0,0,0-.09-.14H20l-.14-.18h-.09l-.09-.13h-.09l-.1-.14h-.09l-.09-.14H19.2l-.33-.36-.18-.13v-.1L18.55,55v-.09l-.09,0v-.14l-.09,0c0-.09,0-.18-.05-.28h-.05v-.09h0V54.1l-.09,0v-.18a1.9,1.9,0,0,1-.23-1.14,1.27,1.27,0,0,1,.46,0c.12.1.29,0,.46.09.37.11,1.06.18,1.15.54.19.2,0,.6.09.91h.05v.27h0v.23h.05v.09h.05l.09.27.09,0,.33.36h.09l.05.09H21l0,.09h.14v0h.09v.05l.51,0v0l.37-.05v0h.09v0l.14,0a.45.45,0,0,1,.14-.23h0v-.09l.1,0v-.09l.09,0V55h.05v-.09h0v-.09l.09-.09v-.09l.1,0v-.09l.18-.14.05-.09h.09l.14-.18.27-.09v0h.1l0-.09H24a.41.41,0,0,0,.05-.09l.18,0,.05-.09h.09v0h.1l0-.09h.09v0l.14,0,.05-.09h.09L25,53.2h.1l0-.09.19,0V53a2.12,2.12,0,0,1,.74-.09v0h.27v0h.23v0h.09a.41.41,0,0,0,.05-.09h.09l0-.09h.09l.09-.14H27v-.09l.18-.14c0-.09.07-.18.1-.27h0V52h.05v-.09h.05l.09-.27h0v-.14a1.71,1.71,0,0,0,.14-.77,4.16,4.16,0,0,0-.08-1.25c-.42-4.17-3.22-5.15-3.22-5.15-1.91-.39-.07,1-.07,1a5.47,5.47,0,0,1,.93,3.24l-.09.11h-.05v.09l-.19.14c0,.06,0,.12,0,.18l-.37.32-.09.13-.19,0-.05.09-.18.05v0l-.83.18v0H23v0h-.14v0a1.71,1.71,0,0,1-.65,0v0h-.09v0h-.09l0-.09h-.09l-.09-.13h0v-.1l-.09,0-.14-.41H21.5v-.09h0v-.32h-.05v-.18h0v-.32h-.05V48h-.05v-.14h0v-.18h-.05v-.09h0a2.56,2.56,0,0,1-.05-.27H21v-.09h0v-.14l-.09,0a1.33,1.33,0,0,1-.05-.19l-.09,0-.1-.27-.09,0v-.09l-.09,0v-.1l-.09,0c0-.06,0-.12,0-.18l-.09,0-.33-.72L19.61,45l-.64,0,0,.09h-.14v0h-.09a.41.41,0,0,1-.05.09l-.18,0-.09.14h-.1l0,.09-.19.14v.09l-.09,0V46h0v.13h-.05v.28h-.05v.4h0V47h-.05v.23c0,.1-.11.19-.14.31a.61.61,0,0,1-.23,0c-.09-.14-.05,0-.14-.09l0-.09h-.05v-.09l-.18-.14L16.89,47l-.09,0v-.1h-.05c0-.06,0-.12,0-.18h-.05v-.13h-.05v-.14h0v-.23h-.05v-.13h-.05V45.9h0l-.05-.18h0v-.1l-.1,0v-.09l-.78-.73v-.09l-.09,0v-.09l-.09,0V44.4h0a1.4,1.4,0,0,1,.51-1.5h.41V43l.23,0v0h.09v.05a1.85,1.85,0,0,0,1.07.22,2.25,2.25,0,0,1,1-.18v0h.14v0h.09v.05l.42.13,0,.09h.14a.73.73,0,0,0,.05.09h.09v.05l.28,0v0h.64v0h.14v0l.28-.09v0H21l.14-.18h.09l.09-.09s0-.09.05-.13l.23-.19v-.09l.14-.09v-.09l.09,0c0-.06,0-.12,0-.18h0v-.59l-.23-.19v0h-.09v-.05l-.28-.09v0l-.27,0v0h-.23v0H19.52v0h-.18v0h-.1l-.37-.27v-.09l-.27-.23V40.5l-.33-.27-.09-.14h-.09L18,40h-.09v-.05l-.19,0v0l-.18,0v-.05H17.4v0h-.19v0H17v0h-.19v0h-.13v0h-.14l-.05-.09h-.09v0l-.14-.09v-.09h-.05l0-.18h-.05a2.29,2.29,0,0,1,0-.64l.09,0v-.14l.1,0v-.09l.13-.09v-.09l.42-.36v-.09l.23-.18c0-.06,0-.12.05-.18l.09-.05v-.14h0c0-.06,0-.12,0-.18h0v-.22h0v-.09h0V36.1h.05c0-.15,0-.3,0-.45h.05v-.09h0v-.18h0v-.09h.05c0-.09,0-.18,0-.27h.05v-.09h.05v-.19h0v-.09H18v-.22h0v-.14h.05V34h.05V33.7h0v-.13h.05v-.23h0v-.09h.05v-.14h.05v-.18l.09,0V32.7l.09,0,.05-.32h0v-.09h.05V32h0v-.09h0v-.22h0v-.14h0c0-.11,0-.21.05-.32a3,3,0,0,1,.6-.86c.17-.16.42-.3.51-.54a3.42,3.42,0,0,0-.19-1.41,1.6,1.6,0,0,1,.09-.72c0-.22,0-.43.05-.64H20l.09-.54.09-.05v-.13l.1-.05a1.16,1.16,0,0,1,0-.18l.19-.14,0-.09h.09l.1-.13h.14a.36.36,0,0,1,0-.09h.23v-.05h.19v0h.78a3.48,3.48,0,0,1,.88-.05,2.77,2.77,0,0,0,.83.05v-.05h.5v-.05h.14v0h.28V25.4h.09v0l.42-.05v0h.14v-.05h.41v0h1.25v-.05s7,.67,10-7.09c0,0,.94-2.08,1-2s.14-.73.25-.73,0-.49.07-.56-.11-.14,0-.24-.21-.12-.21-.16h0a1.07,1.07,0,0,0-.09-.59v-.14H38l-.09-.27h-.05v-.09l-.09-.05v-.09h0c0-.06,0-.12-.05-.18l-.09,0v-.09h-.05l-.09-.28h-.05v-.13h0v-.46l0-.72h.05v-.09h0l.09-.27.09-.05a1.33,1.33,0,0,0,.09-.63,1.7,1.7,0,0,0-.14-.1v0h-.09V9.94l-.18,0V9.85h-.19v0H37V9.76h-.37v0H36v0h-.37v.05h-.23v0h-.23V9.9h-.1v0h-.23V10h-.14v0h-.23v.05l-.55.05v0H33v.05h-.18v0h-.28v.05h-.14v0H32.3v.05h-.14v0l-.27.09v.05h-.1v0h-.14v.05l-.18,0v0l-.56.09v0h-.13v-.05l-.14,0-.05-.31h.05v-.14h0c0-.09.07-.18.1-.27l.09-.05V9.85l.27-.22.1-.14h.09l.18-.23h.1l.09-.13h.09l.1-.14.18,0,.09-.14h.09l0-.09h.09l0-.09h.09l.09-.09h.1v0h.09l0-.09.23,0a.41.41,0,0,0,.05-.09h.14l0-.09h.14v0l.19,0V8L34.05,8l.05-.09h.18V7.81l.37,0v0h.28v0h.14v0h.27v0h.24v0h.13v0H36v0h.09v0l.6,0V7.31h.65c.55.16,1.24.17,1.8.32h.41v0h.1v0h.27v0H40v0l.33.05v0h.09V8h.14l0,.09.42.14,0,.09h.14v0l.19,0v0h.09l.05.09h.13a.41.41,0,0,1,.05.09h.14v.05h.09l.05.09h.14l0,.09h.14l0,.09.18,0,.09.13.19.05.09.13H43a.71.71,0,0,0,.1.14h.09v0l.14,0,0,.09h.09l.14.18h.1a1.1,1.1,0,0,0,.09.14h.09a.41.41,0,0,0,0,.09l.18,0a.47.47,0,0,0,0,.1h.09l.09.09h.09v0h.09a.41.41,0,0,1,0,.09h.14a.41.41,0,0,0,0,.09h.13a.41.41,0,0,1,0,.09l.23.05,0,.09h.13v0l.19,0v.05h.14l0,.08h.14v0l.19.05v0h.09l0,.09h.14a.36.36,0,0,0,0,.09l.19,0a.36.36,0,0,0,0,.09h.09l.05.09h.09l.09.09.19.05a.41.41,0,0,0,0,.09h.09l0,.09h.1l0,.09h.09a.41.41,0,0,1,0,.09l.18,0,0,.1h.09a.73.73,0,0,1,0,.09H48l.09.13h.1l0,.09h.09l.1.14h.09l0,.09h.1l.09.14h.09l.09.13h.1l.13.18h.1l.13.18h.1l.51.55.23.18v.09h.09v.09c.16,0,.17.13.28.23h0l.05.09h.09v0c.12.1.2.23.37.28v.09a1.4,1.4,0,0,1,.51.36,12.39,12.39,0,0,1,2.44,9.06v.14h0v.41h0v.59H54v.23h0v.49h0v.14h0c0,.21,0,.43-.05.64h0V27h0v.23l-.1,0v.18h0v.14h0v.09h0v.13l-.1,0V28h0c0,.06,0,.13-.05.19h0v.13l-.1,0v.13h0v.09h0l-.09.27h0V29l-.09,0v.13h0l0,.18h-.05a1.89,1.89,0,0,1,0,.23h0c0,.11,0,.21-.05.32h0V30h0v.23l-.09,0c0,.17,0,.33,0,.5h0v.09h-.05v.23l-.09,0c0,.12,0,.24,0,.36l-.09.05v.18l-.09.05c0,.13-.06.27-.1.4h0v.1h-.05v.13l-.09,0a2.56,2.56,0,0,1-.05.27h0v.09h0V33l-.09,0v.18h0v.14h0v.13h-.05v.23h0v.09h0V34h-.05v.09h0l0,.41H51v.09h0v.18h0v.09h0v.18H50.8v.14h0v.09h0v.18h-.05v.09h0a2.56,2.56,0,0,0,0,.27h0v.09h0v.18l-.1,0v.18l-.09.05c0,.09,0,.18,0,.27l-.1,0v.14h0v.09h0V37h0v.09H50l0,.18-.09,0,0,.18-.09,0c0,.06,0,.12,0,.19l-.1,0v.09l-.09.05V38l-.14.09v.09l-.14.09v.09l-.32.27L47.57,40v.09l-.09,0v.09h0l0,.19h0c0,.09,0,.18-.05.27h0v.22h0V41h0v.68h0a3.24,3.24,0,0,0,0,1.09v.54h0c0,.12,0,.25,0,.37h0v.09h.05v.13h0v.18l.09.05.09.27.18.14v.09l.28.22a3.11,3.11,0,0,1,.23.28h.09c.12.08.08.17.28.22v.09c.22.06.2.22.42.28v.09c.19,0,.17.13.27.27l.19.13v.09l.09.05a1,1,0,0,1,.32.45c.19.06.06,0,.14.14l.09.05v.09l.14.09v.09l.09,0,0,.14h0v.09l.14.09v.14l.13.09c0,.06,0,.12,0,.18h.05a.34.34,0,0,1,.09.22H51c0,.11,0,.12,0,.19h0v.09h.05v.09l.09,0v.09l.09,0c0,.06,0,.12,0,.18h.05s0,.09,0,.14l.09,0v.09l.14.09v.09l.09,0v.13l.19.14c0,.06,0,.12,0,.18l.1,0a.54.54,0,0,1,.14.27h.09v.09c.12.08.14.2.23.32l.09,0v.09l.18.14V51l.14.09v.09l.09,0v.09l.1,0,0,.14.23.18c0,.06,0,.12,0,.18l.23.18v.09l.14.09v.09l.42.37c.18.18.41.52.69.59v.09a.28.28,0,0,1,.18.09v0h.09v.05l.14.09.05.09.18,0,.14.18h.09a.41.41,0,0,1,.05.09H56l.09.13.19.05.23.27h.09v.05h.09v0h.14l0,.09H57l0,.09h.14v0l.19,0v.05h.13l0,.09.23,0v.05l.14,0a.73.73,0,0,1,0,.09c.13,0,2.16.7,3.49,1.14C59.3,57.88,54.81,61,54.76,61l-.44.57-.12.19-.23.34-.13.21-.16.29-.11.21-.12.27-.08.21a2,2,0,0,0-.09.26.7.7,0,0,0-.06.19,2.68,2.68,0,0,0-.07.27,1.16,1.16,0,0,0,0,.18l-.06.3a1,1,0,0,1,0,.16c0,.11,0,.23,0,.35a.41.41,0,0,1,0,.11c-.09,1.13,0,2.46-.21,4.49h49.45a15.56,15.56,0,0,0,15.52-15.52V2.54H17.59A15.53,15.53,0,0,0,2.07,18.06Z"></path><path class="cls-5" d="M38.85,36.12l-.05,2.23c0,.45-.4.62-.84.37L36.56,38c-.89-.49-1.67-.15-1.69.74l-.08,2.75c0,.45-.41.61-.86.35l-1.2-.68c-.94-.54-1.76-.19-1.78.75l-.05,2.27a4,4,0,0,0,.77,2.47l.55.83c.34,2.36,1.86,2.06,2.38-.18l0-1.66c0-.46.41-.62.86-.37l2.13,1.21c.45.25.85.08.85-.38l0-3.48c0-.45.38-.63.82-.4l1.76.36c.44.23,1.34-.8,1.34-1.24L42.52,39a1.21,1.21,0,0,0-.29-.76l-1.61-2.06C39.92,35.23,38.88,35.22,38.85,36.12Z"></path><path class="cls-5" d="M48.91,21.64a2.19,2.19,0,0,1-.19-.81l-.18,0c0-.09,0-.18,0-.27h0a4.46,4.46,0,0,0-.74-.18c-.07.12-.12.17-.32.18a2.37,2.37,0,0,1-.14.32l-.09.4h0v.09h0c0,.08,0,.16,0,.23l-.1.05v.18h0V22h-.05v.09h0v.28h0l.09.4.23.19v0h.1v.05l.27.09v0l.28.05v0l.87.14h.7v0h.09l.32.28v.09l.09,0c0,.06,0,.12,0,.18l.09.05v.09h0a.44.44,0,0,1,.09.18l.6.05.05-.05v.05h.09v0H51v.05h.1v0l.32.05v0l.14.05.09-.14a.68.68,0,0,0,.09-.59h0v-.18h0v-.09h-.05c0-.07,0-.15,0-.23l-.09,0v-.09l-.1-.05v-.09l-.09,0-.18-.23H51v0l-.27-.1v0h-.14v-.05h-.14v0h-.14v-.05H50.2v0H50V22.5l-.19,0-.09-.09h-.09l0-.09h-.09v-.05c-.11-.08-.17-.19-.33-.23a.54.54,0,0,0-.13-.22h0v-.09Z"></path><path class="cls-1" d="M17.59.47A17.61,17.61,0,0,0,0,18.06V71.65H102.22a17.64,17.64,0,0,0,17.59-17.59V.47ZM47.2,48.12v.27l-.09,0v.22h0v.09h0v.18H47v.14l-.09,0-.09.4-.1,0v.14l-.09,0v.14l-.09,0-.09.27-.09,0v.14l-.1,0v.09l-.09,0c0,.06,0,.12,0,.18l-.09,0a.78.78,0,0,1,0,.14h0l-.09.27-.14.09v.09h0a1.21,1.21,0,0,1-.05.18l-.13.09v.09l-.1,0v.09l-.13.09v.09l-.1,0v.09l-.13.09a1.21,1.21,0,0,0-.05.18l-.14.09v.09l-.09.05v.09l-.19.13V53l-.09.05c0,.06,0,.12,0,.18l-.14.09v.09l-.09,0v.09l-.14.09v.09l-.09,0a.69.69,0,0,0,0,.13h-.05V54l-.18.14v.09l-.09,0v.09h-.05a.67.67,0,0,0-.18.32h-.1a.31.31,0,0,1-.09.18h0V55h-.05l-.14.19-.09,0v.09l-.14.09v.09l-.28.23v.09l-.23.18v.09l-.14.09v.09l-.09.05v.09l-.28.23v.09l-.18.13v.09l-.14.09v.1l-.09,0v0l-.09,0v.09h0a.34.34,0,0,0-.09.18h-.09l0,.14h-.05l0,.13-.09,0v.09l-.14.09v.09l-.14.09v.09l-.14.09a1.33,1.33,0,0,1-.05.19l-.18.13a1.21,1.21,0,0,1,0,.18l-.23.18v.1h0a1,1,0,0,0-.09.13l-.1,0c0,.06,0,.12,0,.18s-.31.27-.46.41l-.93,1-.37.32-.09.13h-.09l-.19.23h-.09v0l-.23.18v.1H37l-.09.13-.42.36,0,.09h-.1c-.12.14-.24.28-.37.41h-.09l-.09.14h-.09l-.14.18-.19,0,0,.09-.14,0v0l-.18,0v.05h-.1v0l-.28.09v.05h-.13v0h-.19v0h-.09v0H34v.05h-.14v0l-1,0a2.84,2.84,0,0,1-.73-.32.41.41,0,0,1,0-.09H32a1,1,0,0,1-.09-.13h-.1a.41.41,0,0,0-.05-.09l-.18-.14a.41.41,0,0,0,0-.09h-.09v0a.38.38,0,0,0-.18-.09v-.09l-.14,0v-.05l-.14,0a.41.41,0,0,0-.05-.09h-.09l0-.09-.14,0v-.05l-.19,0,0-.09h-.09a.41.41,0,0,1-.05-.09h-.09l-.05-.09L30,62.08,29.9,62l-.14,0V61.9l-.18,0,0-.1h-.14v0l-.18,0v0h-.14L29,61.54h-.18l-.05-.09L28,61.27v-.05l-.19,0v0h-.13L27.64,61h-.09v0a.42.42,0,0,0-.19-.09.64.64,0,0,0-.18-.27h-.05v-.09l-.09,0v-.1l-.09,0v-.14H26.9v-.09h0c0-.13,0-.27,0-.41h0v-.09h0v-.4h0v-.14h-.05v-.41h0v-.41h0v-.13h0v-.5h0a1.05,1.05,0,0,1,.09-.64.52.52,0,0,1,.28-.22h.32a8.08,8.08,0,0,1,1.94-.09h.74v0H30v0h.14v-.05h.14v0h.18l.05-.09h.09l0-.1h.1v0h.09l0-.09H31l0-.09h.09a.41.41,0,0,0,.05-.09l.19,0v0h.09v-.05h.09v0h.09v0h.09v-.05h.15l0-.09h.14v0l.18-.05v0h.19l0-.09h.19a.41.41,0,0,1,0-.09l.32,0,0-.09h.14v0h.09v0h.14v-.05l.19,0v0h.14l0-.09H34v0l.18,0v0h.14v-.05h.09v0h.14v0h.09v0l.46-.14v-.05l.19,0v0h.14v0h.09v-.05h.14v0h.09v0h.18v0H36V54h.18l.05-.09h.14v0l.18-.05v0h.14v0l.28-.09v0h.09v0h.09v-.05h.09v0h.09v0h.1l.09-.09h.09l.05-.09h.13a.41.41,0,0,0,.05-.09l.19,0s0-.06,0-.1l.14,0v0h.09l.09-.09h.1v0h.09a.36.36,0,0,0,0-.09h.15a.36.36,0,0,1,0-.09l.19,0,0-.09h.14l.05-.09.18-.05a.73.73,0,0,0,0-.09l.14,0v-.05l.18,0a.41.41,0,0,1,0-.09H40a.41.41,0,0,0,0-.09h.09l0-.09.18-.05.05-.09.28-.09,0-.09h.09a.41.41,0,0,0,.05-.09l.18,0,0-.09h.09l0-.09h.09l0-.09.18,0,0-.1h.09l0-.09.14,0,.13-.18.19,0,.14-.18h.09l.09-.14h.09l.1-.13h.09l.18-.23h.1a.36.36,0,0,1,0-.09h.09l.28-.32h.09a1.13,1.13,0,0,1,.1-.13h.09l.27-.32h.1l.23-.27.09,0v-.09l.09,0v0l.46-.41v-.09l.09,0,.05-.14.23-.18v-.09l.14-.09v-.09l.14-.09v-.09l.14-.09v-.09A1,1,0,0,1,46,47a1.21,1.21,0,0,0,0-.14h.09c0-.18.11-.14.24-.23v0a.31.31,0,0,1,.18-.09v-.05h.37l.09.14.14.09v.09h0v.09h0V47h0v.14h0A2,2,0,0,1,47.2,48.12Zm-21-8.48h.05v.09h0c0,.11,0,.21.05.32h0v.09h.05v.14h0c0,.07,0,.15,0,.22h0c0,.3,0,.26-.23.36v0h-.14v0h-.09v0H26v0h-.14v0H25.7v0h-.14v0h-.09v0l-.32,0v0H24.5v0h-.14v0h-.18v0l-.28,0v0h-.09v0h-.14v0l-.18,0,0-.09h-.09v0l-.14-.09a1.64,1.64,0,0,1-.09-.82h0v-.27h.05v-.09h.05v-.23h0v-.09h.05V39a2.21,2.21,0,0,0,.09-.91h-.05c0-.21,0-.43,0-.64H23.3v-.09h0v-.22l-.1,0,0-.54h-.05v-.14h0V35.06H23v-.18h-.05v-.5h0c0-.21,0-.42-.05-.64a7.62,7.62,0,0,0-.14-1.9,1,1,0,0,1,.14-.77c.06-.18.13-.11.23-.23.56,0,.84.64,1,1.05V32h0v.14h.05v.09h0v.09l.24.27h.09l0,.09.19,0v0l.18.05v0h.14a1.33,1.33,0,0,1,.14.19l.09,0c.1.17,0,.47.05.68.11.38.25.82.65.91a.82.82,0,0,0,.5.09v0h.23v0h.09v-.05H27l.05-.09.18,0,.14-.18h.1l.23-.28h.09c0-.15.26-.34.37-.45l.09,0v-.1h.05l.13-.18.14-.09v-.09l.23-.18v-.09l.23-.18v-.09l.1-.09h.09l.09-.14.37-.27h.09v0a4,4,0,0,1,1.94,0h.42v0h.46v0L33.91,32c.17,0,.42,0,.51,0h.18v0a.41.41,0,0,1,.24.41v.14h-.05c-.08.28-.33.26-.6.36v0H34v0h-.19v0l-.83.22v0H32.9v0h-.14v.05l-.28.09v0l-.18,0-.09.14h-.09a.41.41,0,0,0,0,.09H32a1,1,0,0,0-.09.13h-.1a.41.41,0,0,1-.05.09l-.13.05v0h-.1l0,.09-.19,0,0,.09-.28.09v0h-.09v0h-.09v.05l-.28.09v0h-.14v.05l-.18,0v0L30,35l0,.09h-.1l-.18.22h-.09v.05l-.14.09v.09l-.19.14v.09l-.09,0c0,.05,0,.09,0,.14h-.05c0,.06,0,.12-.05.18l-.09,0v.1l-.14.09v.09c-.37.37-.73.75-1.1,1.13l-.14,0-.09.13-.14,0-.05.09h-.09l-.05.09H27v0l-.14.05,0,.09h-.09l-.18.23-.14,0v.09l-.14.09c0,.06,0,.12,0,.18h-.05V39h-.05C26.18,39.22,26.2,39.43,26.21,39.64ZM42.5,15.79V15.7l-.14-.09v-.09a1.33,1.33,0,0,1-.19-.14v-.09l-.09,0v-.09h0v-.09h0v-.14h-.05a.49.49,0,0,1,.09-.45c0-.11,0-.08.1-.14v0h.09a1,1,0,0,0,0-.1h.14v0h.19v0c.25-.08.47,0,.64-.14.37-.1.32-.76.51-1h0l.14-.18c.07-.06.1,0,.18-.1l.46.05a2.64,2.64,0,0,1,1.11,1.18l0,.77h0a2.39,2.39,0,0,1,.14.91,13.86,13.86,0,0,1-.65,1.4c-.05.2-.09.39-.14.59h0a1.21,1.21,0,0,0-.05.18h0v.14l-.09,0c0,.07,0,.13,0,.19l-.14.09v.09l-.14.09v0h-.09l-.1.14H44.2l-.37.41-.18,0,0,.09h-.09l-.09.14-.14,0-.05.09a1,1,0,0,1-.41.28v0h-.19c-.26.09-.41,0-.64-.09,0,0,0-.09-.05-.14h-.09l-.05-.09h0c-.1-.13-.14-.32-.28-.4v-.55h.05v-.13h0l.09-.28h.05v-.09l.09,0v-.09l.1-.09v-.1h0v-.08l.09-.05v-.14l.1,0V17.2h0v-.09h0V17h0v-.14l.1,0v-.1l.09-.09v-.09h0c0-.07,0-.15,0-.22h.05v-.5Zm-.27,22.4a1.21,1.21,0,0,1,.29.76l-.09,2.35c0,.44-.9,1.47-1.34,1.24l-1.76-.36c-.44-.23-.82,0-.82.4l0,3.48c0,.46-.4.63-.85.38L35.5,45.23c-.45-.25-.85-.09-.86.37l0,1.66c-.52,2.24-2,2.54-2.38.18l-.55-.83a4,4,0,0,1-.77-2.47L31,41.87c0-.94.84-1.29,1.78-.75l1.2.68c.45.26.84.1.86-.35l.08-2.75c0-.89.8-1.23,1.69-.74l1.4.76c.44.25.83.08.84-.37l.05-2.23c0-.9,1.07-.89,1.77,0Zm6.82-16.41a.54.54,0,0,1,.13.22c.16,0,.22.15.33.23v.05h.09l0,.09h.09l.09.09.19,0v.05h.18v0h.09v.05h.14v0h.14v.05h.14v0l.27.1v0h.1l.18.23.09,0v.09l.1.05v.09l.09,0c0,.08,0,.16,0,.23h.05v.09h0V24h0a.68.68,0,0,1-.09.59l-.09.14-.14-.05v0l-.32-.05v0H51v-.05H50.8v0h-.09v-.05l-.05.05-.6-.05a.44.44,0,0,0-.09-.18h0v-.09L49.83,24c0-.06,0-.12,0-.18l-.09,0v-.09l-.32-.28h-.09v0h-.7l-.87-.14v0l-.28-.05v0l-.27-.09V23h-.1v0l-.23-.19-.09-.4h0v-.28h0V22h.05v-.13h0v-.18l.1-.05c0-.07,0-.15,0-.23h0v-.09h0l.09-.4a2.37,2.37,0,0,0,.14-.32c.2,0,.25-.06.32-.18a4.46,4.46,0,0,1,.74.18h0c0,.09,0,.18,0,.27l.18,0a2.19,2.19,0,0,0,.19.81l.09.05v.09Zm68.69,32.28a15.56,15.56,0,0,1-15.52,15.52H52.77c.2-2,.12-3.36.21-4.49A.41.41,0,0,0,53,65c0-.12,0-.24,0-.35a1,1,0,0,0,0-.16l.06-.3a1.16,1.16,0,0,1,0-.18,2.68,2.68,0,0,1,.07-.27.7.7,0,0,1,.06-.19,2,2,0,0,1,.09-.26l.08-.21.12-.27.11-.21.16-.29.13-.21.23-.34.12-.19.44-.57c.05,0,4.54-3.1,6.73-4.6-1.33-.44-3.36-1.12-3.49-1.14a.73.73,0,0,0,0-.09l-.14,0v-.05l-.23,0,0-.09H57.4v-.05l-.19,0v0h-.14l0-.09h-.14l0-.09H56.7v0h-.09v-.05h-.09l-.23-.27-.19-.05L56,54.06h-.09a.41.41,0,0,0-.05-.09h-.09l-.14-.18-.18,0-.05-.09-.14-.09v-.05h-.09v0a.28.28,0,0,0-.18-.09v-.09c-.28-.07-.51-.41-.69-.59l-.42-.37v-.09l-.14-.09v-.09l-.23-.18c0-.06,0-.12,0-.18l-.23-.18,0-.14-.1,0v-.09l-.09,0v-.09L52.87,51v-.09l-.18-.14V50.7l-.09,0c-.09-.12-.11-.24-.23-.32v-.09h-.09a.54.54,0,0,0-.14-.27l-.1,0c0-.06,0-.12,0-.18l-.19-.14v-.13l-.09,0v-.09l-.14-.09v-.09l-.09,0s0-.1,0-.14H51.4c0-.06,0-.12,0-.18l-.09,0v-.09l-.09,0v-.09h-.05v-.09h0c0-.07,0-.08,0-.19h-.09a.34.34,0,0,0-.09-.22H50.8c0-.06,0-.12,0-.18l-.13-.09v-.14l-.14-.09v-.09h0l0-.14-.09,0v-.09l-.14-.09V47l-.09-.05c-.08-.11,0-.08-.14-.14a1,1,0,0,0-.32-.45l-.09-.05v-.09l-.19-.13c-.1-.14-.08-.23-.27-.27v-.09c-.22-.06-.2-.22-.42-.28v-.09c-.2-.05-.16-.14-.28-.22h-.09a3.11,3.11,0,0,0-.23-.28l-.28-.22v-.09l-.18-.14-.09-.27-.09-.05V43.9h0v-.13h-.05v-.09h0c0-.12,0-.25,0-.37h0v-.54a3.24,3.24,0,0,1,0-1.09h0V41h0v-.14h0v-.22h0c0-.09,0-.18.05-.27h0l0-.19h0v-.09l.09,0V40l1.29-1.32.32-.27v-.09l.14-.09V38.1l.14-.09v-.09l.09-.05v-.09l.1,0c0-.07,0-.13,0-.19l.09,0,0-.18.09,0,0-.18H50V37h0v-.09h0v-.09h0v-.14l.1,0c0-.09,0-.18,0-.27l.09-.05v-.18l.1,0v-.18h0v-.09h0a2.56,2.56,0,0,1,0-.27h0v-.09h.05v-.18h0V35.2h0v-.14h.05v-.18h0v-.09h0v-.18h0v-.09H51l0-.41h0V34h.05v-.23h0V33.7h0v-.23h.05v-.13h0V33.2h0V33l.09,0v-.14h0v-.09h0a2.56,2.56,0,0,0,.05-.27l.09,0V32.3h.05v-.1h0c0-.13.06-.27.1-.4l.09-.05v-.18l.09-.05c0-.12,0-.24,0-.36l.09,0v-.23h.05V30.8h0c0-.17,0-.33,0-.5l.09,0V30h0v-.09h0c0-.11,0-.21.05-.32h0a1.89,1.89,0,0,0,0-.23h.05l0-.18h0v-.13l.09,0v-.14h0l.09-.27h0v-.09h0V28.4l.1,0v-.13h0c0-.06,0-.13.05-.19h0V27.9l.1,0v-.13h0v-.09h0v-.14h0v-.18l.1,0V27h0V27h0c0-.21,0-.43.05-.64h0v-.14h0v-.49h0v-.23H54v-.59h0v-.41h0v-.14a12.39,12.39,0,0,0-2.44-9.06,1.4,1.4,0,0,0-.51-.36V14.8c-.17-.05-.25-.18-.37-.28v0h-.09l-.05-.09h0c-.11-.1-.12-.19-.28-.23v-.09h-.09V14L50,13.8l-.51-.55h-.1l-.13-.18h-.1l-.13-.18H49l-.09-.13h-.09l-.09-.14h-.1l0-.09h-.09l-.1-.14h-.09l0-.09h-.1L48,12.17h-.09a.73.73,0,0,0,0-.09H47.8l0-.1-.18,0a.41.41,0,0,0,0-.09h-.09l0-.09h-.1l0-.09h-.09a.41.41,0,0,1,0-.09l-.19-.05-.09-.09h-.09l-.05-.09H46.6a.36.36,0,0,1,0-.09l-.19,0a.36.36,0,0,1,0-.09h-.14l0-.09h-.09v0l-.19-.05v0h-.14l0-.08h-.14v-.05l-.19,0v0h-.13l0-.09-.23-.05a.41.41,0,0,0,0-.09h-.13a.41.41,0,0,1,0-.09h-.14a.41.41,0,0,0,0-.09h-.09v0h-.09l-.09-.09h-.09a.47.47,0,0,1,0-.1l-.18,0a.41.41,0,0,1,0-.09h-.09a1.1,1.1,0,0,1-.09-.14h-.1l-.14-.18h-.09l0-.09-.14,0v0H43.1a.71.71,0,0,1-.1-.14h-.09l-.09-.13-.19-.05L42.54,9l-.18,0,0-.09h-.14l0-.09H42l-.05-.09h-.09V8.58h-.14a.41.41,0,0,0-.05-.09h-.13l-.05-.09h-.09v0l-.19,0v0h-.14l0-.09L40.6,8l0-.09h-.14v0h-.09v0L40,7.81v0h-.09v0h-.27v0h-.1v0h-.41c-.56-.15-1.25-.16-1.8-.32h-.65v.05l-.6,0v0H36v0h-.28v0h-.13v0h-.24v0h-.27v0h-.14v0h-.28v0l-.37,0v.05H34.1L34.05,8,33.64,8v.05l-.19,0v0h-.14l0,.09h-.14a.41.41,0,0,1-.05.09l-.23,0,0,.09h-.09v0h-.1l-.09.09h-.09l0,.09H32.3l0,.09h-.09L32.07,9l-.18,0-.1.14H31.7l-.09.13h-.1l-.18.23h-.09l-.1.14-.27.22v.09l-.09.05c0,.09-.06.18-.1.27h0v.14h-.05l.05.31.14,0v.05h.13v0l.56-.09v0l.18,0v-.05h.14v0h.1v-.05l.27-.09v0h.14v-.05h.09v0h.14v-.05h.28v0H33v-.05h1v0l.55-.05V10h.23v0h.14V9.94h.23v0h.1V9.85h.23v0h.23V9.76H36v0h.6v0H37v.05h.13v0h.19V9.9l.18,0V10h.09v0a1.7,1.7,0,0,1,.14.1,1.33,1.33,0,0,1-.09.63l-.09.05-.09.27h0v.09h-.05l0,.72v.46h0v.13h.05l.09.28h.05v.09l.09,0c0,.06,0,.12.05.18h0v.09l.09.05v.09h.05l.09.27H38v.14a1.07,1.07,0,0,1,.09.59h0s.21.11.21.16.11.13,0,.24,0,.42-.07.56S38.1,16,38,16s-.94,2.08-1,2c-2.94,7.76-9.95,7.09-9.95,7.09v.05H25.84v0h-.41v.05h-.14v0l-.42.05v0h-.09v.05H24.5v0h-.14v.05h-.5v.05a2.77,2.77,0,0,1-.83-.05,3.48,3.48,0,0,0-.88.05h-.78v0h-.19v.05H21a.36.36,0,0,0,0,.09h-.14l-.1.13h-.09l0,.09-.19.14a1.16,1.16,0,0,0,0,.18l-.1.05v.13l-.09.05-.09.54H20c0,.21,0,.42-.05.64a1.6,1.6,0,0,0-.09.72A3.42,3.42,0,0,1,20,29.85c-.09.24-.34.38-.51.54a3,3,0,0,0-.6.86c0,.11,0,.21-.05.32h0v.14h0v.22h0V32h0v.23h-.05v.09h0l-.05.32-.09,0v.18l-.09,0v.18h-.05v.14h-.05v.09h0v.23h-.05v.13h0V34h-.05v.32H18v.14h0v.22H18v.09h0v.19h-.05V35h-.05c0,.09,0,.18,0,.27h-.05v.09h0v.18h0v.09h-.05c0,.15,0,.3,0,.45h-.05v.28h0v.09h0v.22h0c0,.06,0,.12,0,.18h0V37l-.09.05c0,.06,0,.12-.05.18l-.23.18v.09l-.42.36V38l-.13.09v.09l-.1,0v.14l-.09,0a2.29,2.29,0,0,0,0,.64h.05l0,.18h.05v.09l.14.09v0h.09l.05.09h.14v0h.13v0H17v0h.18v0h.19v0h.14v.05l.18,0v0l.19,0V40H18l.09.13h.09l.09.14.33.27v.09l.27.23v.09l.37.27h.1v0h.18v0h1.25v0H21v0l.27,0v0l.28.09v.05h.09v0l.23.19v.59h0c0,.06,0,.12,0,.18l-.09,0v.09l-.14.09v.09l-.23.19s0,.09-.05.13l-.09.09h-.09l-.14.18h-.09v0l-.28.09v0h-.14v0H19.8v0l-.28,0v-.05h-.09a.73.73,0,0,1-.05-.09h-.14l0-.09-.42-.13v-.05h-.09v0h-.14v0a2.25,2.25,0,0,0-1,.18,1.85,1.85,0,0,1-1.07-.22V43h-.09v0l-.23,0V42.9h-.41a1.4,1.4,0,0,0-.51,1.5h0v.09l.09,0v.09l.09,0v.09l.78.73v.09l.1,0v.1h0l.05.18h0v.18h.05v.13h.05v.23h0v.14h.05v.13h.05c0,.06,0,.12,0,.18h.05V47l.09,0,.05.18.18.14v.09h.05l0,.09c.09.07.05-.05.14.09a.61.61,0,0,0,.23,0c0-.12.11-.21.14-.31V47h.05V46.8h0v-.4h.05v-.28h.05V46h0v-.14l.09,0v-.09l.19-.14,0-.09h.1l.09-.14.18,0a.41.41,0,0,0,.05-.09h.09v0h.14l0-.09.64,0,.32.28.33.72.09,0c0,.06,0,.12,0,.18l.09,0v.1l.09,0v.09l.09,0,.1.27.09,0a1.33,1.33,0,0,0,.05.19l.09,0v.14h0v.09h.05a2.56,2.56,0,0,0,.05.27h0v.09h.05v.18h0V48h.05v.22h.05v.32h0v.18h.05v.32h0v.09h.05l.14.41.09,0v.1h0l.09.13H22l0,.09h.09v0h.09v0a1.71,1.71,0,0,0,.65,0v0H23v0h.18v0l.83-.18v0l.18-.05.05-.09.19,0,.09-.13.37-.32c0-.06,0-.12,0-.18l.19-.14v-.09h.05l.09-.11a5.47,5.47,0,0,0-.93-3.24s-1.84-1.4.07-1c0,0,2.8,1,3.22,5.15a4.16,4.16,0,0,1,.08,1.25,1.71,1.71,0,0,1-.14.77v.14h0l-.09.27h-.05V52h-.05v.09h0c0,.09-.06.18-.1.27l-.18.14v.09H27l-.09.14h-.09l0,.09h-.09a.41.41,0,0,1-.05.09h-.09v0H26.3v0H26v0a2.12,2.12,0,0,0-.74.09v.05l-.19,0,0,.09H25l-.09.13h-.09l-.05.09-.14,0v0H24.5l0,.09h-.1v0h-.09l-.05.09-.18,0a.41.41,0,0,1-.05.09H23.9l0,.09h-.1v0l-.27.09-.14.18h-.09l-.05.09-.18.14v.09l-.1,0v.09l-.09.09v.09h0V55h-.05v.09l-.09,0v.09l-.1,0v.09h0a.45.45,0,0,0-.14.23l-.14,0v0h-.09v0l-.37.05v0l-.51,0v-.05h-.09v0H21l0-.09h-.09l-.05-.09h-.09l-.33-.36-.09,0-.09-.27h-.05v-.09h-.05v-.23h0v-.27h-.05c-.09-.31.1-.71-.09-.91-.09-.36-.78-.43-1.15-.54-.17-.06-.34,0-.46-.09a1.27,1.27,0,0,0-.46,0,1.9,1.9,0,0,0,.23,1.14v.18l.09,0v.18h0v.09h.05c0,.1,0,.19.05.28l.09,0v.14l.09,0V55l.14.09v.1l.18.13.33.36h.09l.09.14h.09l.1.14h.09l.09.13h.09l.14.18h.09a1.1,1.1,0,0,1,.09.14h.1v.05l.18,0v0l.23,0v.05l.28,0v0h.23v0a4.51,4.51,0,0,0,1.11,0v0h.14v0h.13v-.05h.14v0l.74,0v0c.3,0,.29.12.46.22a1.47,1.47,0,0,1,0,.59h0v.14l-.1,0v.14l-.09,0v.09l-.09,0,0,.18-.18.14c0,.06,0,.12-.05.18l-.18.13v.1a1.1,1.1,0,0,0-.14.09v.09l-.09,0v.09l-.14.09V59l-.14.1a1.21,1.21,0,0,1-.05.18l-.09,0,0,.18h-.05v.09h-.05v.09h0v.1h-.05V60l-.09,0v.13l-.09,0c0,.09,0,.18,0,.27h0v.09h0v.18h-.05v.09h0V61h0v.18h0v.09h0v.18h-.05v.09h0c0,.12,0,.24-.05.37H21.5V62h0v.18h-.05v.09h0l-.05.36h-.05v.09h0v.18l-.09,0v.23h-.05v.13H21v.09h0v.18l-.09,0v.13h-.05v.14h-.05v.09h0V64l-.1,0v.09l-.09,0v.09h0a.78.78,0,0,0-.05.14l-.09,0v.1l-.37.31V65l-.1,0-.18.23-.55.49v.1A11.4,11.4,0,0,0,17,69.58h-15V18.06A15.53,15.53,0,0,1,17.59,2.54H117.74Z"></path><path class="cls-1" d="M53.22,63.72a.7.7,0,0,1,.06-.19A.7.7,0,0,0,53.22,63.72Z"></path><path class="cls-1" d="M53.37,63.27l.08-.21Z"></path><path class="cls-1" d="M54.2,61.74l.12-.19Z"></path><path class="cls-1" d="M53.57,62.79l.11-.21Z"></path><path class="cls-1" d="M53,65.09A.41.41,0,0,0,53,65,.41.41,0,0,1,53,65.09Z"></path><path class="cls-1" d="M53,64.63a1,1,0,0,0,0-.16A1,1,0,0,1,53,64.63Z"></path><path class="cls-1" d="M53.84,62.29l.13-.21Z"></path><path class="cls-1" d="M53.11,64.17a1.16,1.16,0,0,1,0-.18A1.16,1.16,0,0,0,53.11,64.17Z"></path></g></g></svg>